<svg xmlns="http://www.w3.org/2000/svg" viewBox="0 0 605.83 396.202">
  <defs>
    <style>
      .cls-1 {
        fill: #6fcecc;
        opacity: 0.15;
      }

      .cls-2 {
        fill: #0bb3b7;
      }

      .cls-3 {
        fill: #156f93;
      }

      .cls-10, .cls-11, .cls-12, .cls-20, .cls-21, .cls-22, .cls-23, .cls-24, .cls-29, .cls-4, .cls-41, .cls-47, .cls-48 {
        fill: none;
      }

      .cls-4 {
        stroke: #0bb3b7;
        stroke-width: 0.5px;
      }

      .cls-10, .cls-11, .cls-12, .cls-20, .cls-21, .cls-22, .cls-23, .cls-29, .cls-4, .cls-41, .cls-47, .cls-48 {
        stroke-miterlimit: 10;
      }

      .cls-5 {
        fill: #2573ad;
      }

      .cls-6 {
        fill: #1ba4ce;
      }

      .cls-7 {
        fill: #068484;
      }

      .cls-8 {
        fill: #04b6ba;
      }

      .cls-9 {
        fill: #94e1eb;
      }

      .cls-10, .cls-11, .cls-12, .cls-20, .cls-21, .cls-22, .cls-23 {
        stroke: #6fcecc;
      }

      .cls-11 {
        stroke-dasharray: 5.097 5.097;
      }

      .cls-12 {
        stroke-dasharray: 5.079 5.079;
      }

      .cls-13 {
        fill: #00bfcd;
      }

      .cls-14 {
        fill: #1eccde;
      }

      .cls-15 {
        fill: #5ceff7;
      }

      .cls-16 {
        opacity: 0.35;
      }

      .cls-17, .cls-36 {
        fill: #fff;
      }

      .cls-18 {
        fill: #67d7e0;
      }

      .cls-19 {
        fill: #dcfdff;
      }

      .cls-20 {
        stroke-dasharray: 4.921 4.921;
      }

      .cls-21 {
        stroke-dasharray: 5.175 5.175;
      }

      .cls-22 {
        stroke-dasharray: 4.804 4.804;
      }

      .cls-23 {
        stroke-dasharray: 5.314 5.314;
      }

      .cls-24 {
        stroke: #fff;
        stroke-linejoin: round;
        stroke-width: 1.5px;
      }

      .cls-24, .cls-29, .cls-41 {
        stroke-linecap: round;
      }

      .cls-25 {
        fill: #fca424;
      }

      .cls-26 {
        fill: #fcfcfc;
      }

      .cls-27 {
        fill: #e2ded0;
      }

      .cls-28 {
        fill: #fecb22;
      }

      .cls-29 {
        stroke: #028e8e;
      }

      .cls-30 {
        fill: #222b70;
      }

      .cls-31 {
        fill: #3e89cc;
      }

      .cls-32 {
        fill: #ffccb0;
      }

      .cls-33 {
        fill: #fcb424;
      }

      .cls-34 {
        fill: #3b2e7a;
      }

      .cls-35 {
        fill: #1bb9c1;
      }

      .cls-36 {
        opacity: 0.5;
      }

      .cls-37 {
        fill: #f2a181;
      }

      .cls-38 {
        fill: #256ea5;
      }

      .cls-39 {
        fill: #65739b;
      }

      .cls-40 {
        fill: #35416d;
      }

      .cls-41 {
        stroke: #222b54;
      }

      .cls-41, .cls-48 {
        stroke-width: 2px;
      }

      .cls-42 {
        fill: #0e627c;
      }

      .cls-43 {
        fill: #64e2e2;
      }

      .cls-44 {
        fill: #222b54;
      }

      .cls-45 {
        fill: #3b4772;
      }

      .cls-46 {
        fill: #2a8ead;
      }

      .cls-47 {
        stroke: #94e1eb;
      }

      .cls-48 {
        stroke: #156f93;
      }
    </style>
  </defs>
  <title>dan-welcome</title>
  <g id="Шар_2" data-name="Шар 2">
    <g id="OBJECTS">
      <path class="cls-1" d="M30.08,386.784s-47-49.247-23.5-123.625,119-102.843,132-128.11,15.859-83.768,57.7-114.268c49.085-35.777,119.9-23.373,152.8,22s62.577,102.568,104.789,107.284,84.211.057,118.211,65.637-8.5,156.079-21.5,171.579"/>
      <g>
        <path class="cls-2" d="M490.667,97.579a3.75,3.75,0,0,0-.26-1.01l-.01-.01a4.51,4.51,0,0,0-.3-.58,2.99,2.99,0,0,0-.42-.52c-.08-.08-.15-.16-.23-.23a1.638,1.638,0,0,0-.25-.21h-.01c-.11-.08-.23-.16-.35-.23a3.593,3.593,0,0,0-1.17-.43,3.708,3.708,0,0,0-1.2-.02l-.08.01a3.95,3.95,0,0,1-.84.02,3.815,3.815,0,0,1-1.86-.68,1.709,1.709,0,0,1-.26-.21,2.226,2.226,0,0,1-.27-.26,3.019,3.019,0,0,1-.35-.45c-.09-.15-.18-.31-.26-.47-.04-.09-.08-.18-.11-.27s-.06-.15-.09-.23c-.25-.69-.53-1.37-.85-2.04-.01-.01-.01-.03-.02-.04a2.671,2.671,0,0,1-.14-.36,3.476,3.476,0,0,1-.16-1.53v-.01a4.258,4.258,0,0,1,.36-1.2,3.44,3.44,0,0,1,.76-1.03c.11-.1.22-.2.34-.29l.07-.05a3.876,3.876,0,0,0,.31-.26,3.614,3.614,0,0,0,.71-.91,4.522,4.522,0,0,0,.23-.5v-.01a5.084,5.084,0,0,0,.15-.52,3.579,3.579,0,0,0-.7-3.03,32.977,32.977,0,0,0-2.44-2.74,31.507,31.507,0,0,0-2.75-2.45,3.611,3.611,0,0,0-3.11-.69c-.14.04-.27.08-.4.12a3.487,3.487,0,0,0-1.41.92,3.237,3.237,0,0,0-.29.34l-.07.08a3.671,3.671,0,0,1-1.69,1.26,3.748,3.748,0,0,1-.75.19.34.34,0,0,1-.1.01.656.656,0,0,1-.2.01,3.207,3.207,0,0,1-.76-.03,2.19,2.19,0,0,1-.56-.14,2.671,2.671,0,0,1-.36-.14c-.16-.07-.31-.15-.47-.21-.22-.11-.45-.21-.68-.3-.39-.16-.77-.31-1.17-.45-.01-.01-.02-.01-.04-.02a3.625,3.625,0,0,1-2.3-3.66l.01-.05.04-.29v-.03a3.676,3.676,0,0,0-2.79-4.1,2.7,2.7,0,0,0-.41-.08,33.864,33.864,0,0,0-7.35,0,3.676,3.676,0,0,0-3.22,3.98l.03.27a3.272,3.272,0,0,1,.04.54,3.687,3.687,0,0,1-2.08,3.33l-.3.12c-.38.14-.76.29-1.13.44-.31.13-.6.26-.9.39-.07.03-.15.07-.22.1a3.651,3.651,0,0,1-4.47-1.17l-.02-.02a3.705,3.705,0,0,0-4.95-.92c-.11.07-.22.15-.33.23a33.2,33.2,0,0,0-5.12,5.12,3.627,3.627,0,0,0-.64,3.36,3.262,3.262,0,0,0,.44.97,4.317,4.317,0,0,0,.54.66c.11.1.23.2.35.29l.02.02a3.651,3.651,0,0,1,1.17,4.47q-.51,1.11-.93,2.25a3.628,3.628,0,0,1-.73,1.21,5.251,5.251,0,0,1-.62.53,4.223,4.223,0,0,1-.73.38,3.272,3.272,0,0,1-.53.17,3.757,3.757,0,0,1-1.38.05,3.272,3.272,0,0,0-.54-.04,3.822,3.822,0,0,0-.68.06,3.685,3.685,0,0,0-3.03,3.22,31.392,31.392,0,0,0,0,7.25,3.7,3.7,0,0,0,3.03,3.22,3.827,3.827,0,0,0,1.22.02,3.272,3.272,0,0,1,.54-.04,3.767,3.767,0,0,1,2.1.64,3.647,3.647,0,0,1,.43.35,3.529,3.529,0,0,1,.92,1.39q.42,1.14.93,2.25a3.642,3.642,0,0,1-.83,4.19c-.11.1-.22.19-.34.28v.01l-.02.01c-.12.09-.24.19-.35.29a4.317,4.317,0,0,0-.54.66,3.262,3.262,0,0,0-.44.97c-.03.11-.05.22-.07.33s-.04.22-.05.33a2.218,2.218,0,0,0-.03.37v.02c0,.04.01.07.01.11a3.281,3.281,0,0,0,.18,1.02.109.109,0,0,1,.01.05.076.076,0,0,0,.02.05c.02.06.04.11.06.17.05.12.11.24.17.36.01.02.03.04.04.06s.03.05.04.07a2.959,2.959,0,0,0,.26.42,32.062,32.062,0,0,0,5.12,5.12,3.616,3.616,0,0,0,2.63.78,3.691,3.691,0,0,0,.93-.21,3.645,3.645,0,0,0,1.73-1.27l.29-.34a3.813,3.813,0,0,1,1.44-.95l1.26-.22a3.594,3.594,0,0,1,1.5.33,23.881,23.881,0,0,0,2.23.93,3.578,3.578,0,0,1,2.13,2.09,3.731,3.731,0,0,1,.22,1.91v.02a3.7,3.7,0,0,0,2.86,4.15.037.037,0,0,0,.03.01,1.968,1.968,0,0,0,.35.06,31.044,31.044,0,0,0,3.63.21,33.17,33.17,0,0,0,3.61-.2,3.651,3.651,0,0,0,2.24-1.12,3.845,3.845,0,0,0,.59-.8,3.1,3.1,0,0,0,.21-.45,3.709,3.709,0,0,0,.21-1.88,3.272,3.272,0,0,1-.04-.54,3.654,3.654,0,0,1,2.38-3.46c.76-.27,1.5-.58,2.24-.92l.01-.01a3.623,3.623,0,0,1,3.15.06,4.24,4.24,0,0,1,.72.47,2.362,2.362,0,0,1,.32.31,2.285,2.285,0,0,1,.29.33l.01.02a3.71,3.71,0,0,0,4.94.94,2.616,2.616,0,0,0,.34-.24,32.187,32.187,0,0,0,5.13-5.13,3.661,3.661,0,0,0,.63-3.38,4.681,4.681,0,0,0-.18-.48,3.1,3.1,0,0,0-.26-.47,4.317,4.317,0,0,0-.54-.66c-.11-.1-.23-.2-.35-.29l-.02-.01v-.01c-.12-.09-.23-.18-.34-.28a3.657,3.657,0,0,1-.83-4.19,24.236,24.236,0,0,0,.93-2.25,3.675,3.675,0,0,1,4-2.34,3.762,3.762,0,0,0,2.49-.5,4.148,4.148,0,0,0,.52-.39c.08-.08.16-.15.24-.23s.13-.15.19-.22a3.614,3.614,0,0,0,.8-1.9,31.392,31.392,0,0,0,0-7.25Zm-15.76,5.46a1.1,1.1,0,0,0-.02.18c-.04.3-.08.59-.12.88-.05.31-.1.62-.18.93,0,.02-.01.03-.01.04a17.767,17.767,0,0,1-.48,1.77c-.11.34-.24.68-.37,1.02-.12.3-.25.6-.39.89-.1.22-.21.44-.32.65a13.992,13.992,0,0,1-1,1.7c-.09.14-.19.29-.29.43a.771.771,0,0,1-.14.19q-.165.24-.36.48a6.28,6.28,0,0,1-.47.58,12.093,12.093,0,0,1-1.03,1.12c-.15.16-.31.31-.47.46l-.5.44c-.24.2-.48.4-.73.6a20.065,20.065,0,0,1-1.88,1.28c-.2.12-.41.24-.61.35-.24.13-.48.25-.73.37-.23.11-.46.22-.7.32q-.57.24-1.17.45c-.22.08-.44.16-.67.22-.49.15-.98.27-1.48.38a6.039,6.039,0,0,1-.74.14,6.458,6.458,0,0,1-.75.11,19.1,19.1,0,0,1-3.78.08,6.362,6.362,0,0,1-.75-.08,6.458,6.458,0,0,1-.75-.11c-.25-.04-.5-.08-.75-.14a19.2,19.2,0,0,1-2.53-.74c-.22-.08-.44-.16-.65-.26a.412.412,0,0,1-.08-.03c-.24-.1-.48-.21-.71-.32a.59.59,0,0,1-.08-.04,7.386,7.386,0,0,1-.74-.38,14.973,14.973,0,0,1-1.48-.9.052.052,0,0,1-.04-.02c-.23-.15-.45-.31-.67-.48-.2-.15-.4-.3-.59-.46-.28-.23-.54-.46-.8-.7s-.51-.48-.75-.73c-.21-.21-.41-.43-.6-.65a17.465,17.465,0,0,1-1.87-2.54c-.15-.25-.3-.49-.43-.75a8.857,8.857,0,0,1-.44-.87c-.08-.17-.16-.33-.23-.5a3.269,3.269,0,0,1-.14-.33c-.06-.14-.12-.29-.18-.44-.07-.19-.14-.38-.2-.58a1.555,1.555,0,0,1-.08-.23c-.08-.24-.16-.48-.22-.73-.11-.36-.2-.73-.28-1.1-.05-.22-.09-.45-.13-.67-.07-.42-.13-.84-.18-1.27-.06-.61-.09-1.23-.09-1.84v-.03c0-.6.03-1.21.09-1.81.01-.06.01-.12.02-.18.03-.29.07-.59.12-.88.05-.31.1-.62.18-.93a.06.06,0,0,1,.01-.04,17.767,17.767,0,0,1,.48-1.77c.08-.24.17-.49.26-.73.07-.18.14-.37.22-.55.05-.12.1-.25.16-.37.07-.16.14-.32.22-.48a14.424,14.424,0,0,1,.72-1.34c.13-.21.25-.41.38-.62a.209.209,0,0,1,.04-.06c.14-.2.27-.4.41-.59.18-.26.37-.51.57-.76s.4-.49.61-.72.42-.47.64-.7a18.8,18.8,0,0,1,3.72-2.92c.22-.12.44-.25.66-.37s.45-.23.68-.34c.21-.11.43-.21.65-.3a12.3,12.3,0,0,1,1.27-.49,6.214,6.214,0,0,1,.61-.2l.74-.21a6.578,6.578,0,0,1,.74-.17,18.274,18.274,0,0,1,1.49-.25c.25-.03.5-.06.76-.08a19.031,19.031,0,0,1,3.02,0,6.362,6.362,0,0,1,.75.08,6.458,6.458,0,0,1,.75.11,6.585,6.585,0,0,1,.75.14,15.2,15.2,0,0,1,1.84.5c.17.05.33.1.5.16a16.88,16.88,0,0,1,2.46,1.11c.26.14.51.28.75.43s.48.29.71.45.46.32.68.49l.1.07c.22.17.44.34.66.52s.42.35.62.54a15.314,15.314,0,0,1,1.27,1.28c.17.18.32.35.47.54a10.906,10.906,0,0,1,.73.95c.12.16.23.32.34.48a13.95,13.95,0,0,1,1.03,1.74c.13.23.25.47.36.71.02.05.04.09.06.13.12.25.23.51.33.77.02.04.03.08.05.12.09.22.17.44.24.67.05.12.09.26.13.39.19.58.35,1.17.48,1.76.03.18.07.35.1.53.08.46.15.92.2,1.38.06.61.09,1.22.09,1.84S474.967,102.429,474.907,103.039Z"/>
        <path class="cls-3" d="M430.753,69.41a2.359,2.359,0,0,0-.163-.632l-.006-.007a2.945,2.945,0,0,0-.188-.363,1.9,1.9,0,0,0-.263-.325c-.05-.05-.094-.1-.144-.144a1,1,0,0,0-.156-.131h-.007a2.177,2.177,0,0,0-.219-.144,1.747,1.747,0,0,0-.538-.226,1.838,1.838,0,0,0-.194-.044,2.331,2.331,0,0,0-.751-.012l-.05.006a2.512,2.512,0,0,1-.526.013,2.389,2.389,0,0,1-1.164-.426,1.064,1.064,0,0,1-.163-.131,1.379,1.379,0,0,1-.169-.163,1.974,1.974,0,0,1-.219-.282c-.056-.094-.113-.194-.163-.294-.025-.056-.05-.113-.069-.169s-.037-.094-.056-.144c-.157-.432-.332-.858-.532-1.277-.006-.006-.006-.019-.013-.025a1.735,1.735,0,0,1-.087-.225,2.162,2.162,0,0,1-.1-.958V63.3a2.623,2.623,0,0,1,.225-.751,2.15,2.15,0,0,1,.476-.645c.069-.063.137-.125.212-.182l.044-.031a2.172,2.172,0,0,0,.194-.163,2.269,2.269,0,0,0,.445-.569,2.953,2.953,0,0,0,.144-.313V60.64a3.312,3.312,0,0,0,.094-.325,2.24,2.24,0,0,0-.439-1.9,20.607,20.607,0,0,0-1.527-1.715,19.892,19.892,0,0,0-1.721-1.533,2.26,2.26,0,0,0-1.947-.432c-.087.025-.169.05-.25.075a2.19,2.19,0,0,0-.883.576,2.007,2.007,0,0,0-.181.213l-.044.05a2.326,2.326,0,0,1-1.527.907.194.194,0,0,1-.063.007.427.427,0,0,1-.125.006,2.04,2.04,0,0,1-.476-.019,1.332,1.332,0,0,1-.35-.088,1.693,1.693,0,0,1-.226-.087c-.1-.044-.194-.094-.294-.132-.138-.068-.282-.131-.426-.187-.244-.1-.482-.194-.732-.282-.006-.006-.012-.006-.025-.013a2.268,2.268,0,0,1-1.44-2.29l.007-.032.025-.181v-.019a2.3,2.3,0,0,0-1.747-2.566,1.757,1.757,0,0,0-.256-.051,21.232,21.232,0,0,0-4.6,0,2.3,2.3,0,0,0-2.016,2.492l.019.169a2.016,2.016,0,0,1,.025.338,2.309,2.309,0,0,1-1.3,2.084l-.188.075c-.237.088-.475.182-.707.276-.194.081-.375.162-.563.244-.044.019-.094.044-.138.062a2.284,2.284,0,0,1-2.8-.732l-.012-.013a2.32,2.32,0,0,0-3.1-.575c-.069.043-.137.093-.206.144a20.749,20.749,0,0,0-3.2,3.2,2.271,2.271,0,0,0-.4,2.1,2.051,2.051,0,0,0,.276.607,2.647,2.647,0,0,0,.338.413c.069.062.144.125.219.181l.012.013a2.286,2.286,0,0,1,.733,2.8q-.32.694-.582,1.408a2.287,2.287,0,0,1-.457.758,3.252,3.252,0,0,1-.389.331,2.571,2.571,0,0,1-.456.238,2.071,2.071,0,0,1-.332.107,2.362,2.362,0,0,1-.864.031,2.024,2.024,0,0,0-.338-.025,2.4,2.4,0,0,0-.426.037,2.307,2.307,0,0,0-1.9,2.016,19.567,19.567,0,0,0,0,4.538,2.314,2.314,0,0,0,1.9,2.016,2.409,2.409,0,0,0,.764.012,2.024,2.024,0,0,1,.338-.025,2.351,2.351,0,0,1,1.314.4,2.189,2.189,0,0,1,.27.219,2.219,2.219,0,0,1,.576.87q.263.712.582,1.408a2.282,2.282,0,0,1-.52,2.623c-.069.062-.138.119-.213.175v.006l-.012.007c-.075.056-.15.119-.219.181a2.647,2.647,0,0,0-.338.413,2.051,2.051,0,0,0-.276.607c-.019.069-.031.138-.044.207s-.025.138-.031.207a1.44,1.44,0,0,0-.019.231v.013c0,.025.007.043.007.069a2.748,2.748,0,0,0,.031.325,3,3,0,0,0,.081.313.06.06,0,0,1,.007.031.052.052,0,0,0,.012.032c.013.037.025.068.038.106.031.075.068.15.106.225.006.013.019.025.025.038s.019.031.025.044a1.84,1.84,0,0,0,.163.263,20.067,20.067,0,0,0,3.2,3.2,2.265,2.265,0,0,0,1.646.489,2.319,2.319,0,0,0,.582-.132,2.283,2.283,0,0,0,1.083-.8l.181-.213a2.39,2.39,0,0,1,.9-.594l.788-.138a2.242,2.242,0,0,1,.939.207,15.029,15.029,0,0,0,1.4.582,2.247,2.247,0,0,1,1.1.851,2.22,2.22,0,0,1,.237.457,2.331,2.331,0,0,1,.138,1.2v.012a2.316,2.316,0,0,0,1.79,2.6.025.025,0,0,0,.019.006,1.192,1.192,0,0,0,.219.037,19.362,19.362,0,0,0,2.272.132,20.86,20.86,0,0,0,2.26-.125,2.286,2.286,0,0,0,1.4-.7,2.435,2.435,0,0,0,.369-.5,1.919,1.919,0,0,0,.132-.282A2.311,2.311,0,0,0,414,90.079a2.149,2.149,0,0,1-.025-.339,2.286,2.286,0,0,1,1.49-2.165c.476-.169.939-.363,1.4-.576l.006-.006a2.268,2.268,0,0,1,1.972.037,2.728,2.728,0,0,1,.451.294,1.541,1.541,0,0,1,.2.194,1.5,1.5,0,0,1,.182.207l.006.012a2.322,2.322,0,0,0,3.092.589,1.708,1.708,0,0,0,.213-.15,22.688,22.688,0,0,0,1.7-1.515c.538-.545,1.045-1.114,1.515-1.7a2.294,2.294,0,0,0,.394-2.116,3.156,3.156,0,0,0-.112-.3,2.023,2.023,0,0,0-.163-.294,2.705,2.705,0,0,0-.338-.413c-.069-.062-.144-.125-.219-.181l-.013-.007v-.006c-.075-.056-.144-.113-.213-.175a2.291,2.291,0,0,1-.519-2.623q.329-.695.582-1.408a2.3,2.3,0,0,1,2.5-1.465,2.356,2.356,0,0,0,1.558-.313,2.54,2.54,0,0,0,.326-.244c.05-.05.1-.094.15-.144s.082-.094.119-.138a2.259,2.259,0,0,0,.5-1.189,19.716,19.716,0,0,0,0-4.538Zm-9.865,3.418a.712.712,0,0,0-.013.112c-.025.188-.05.37-.075.551s-.062.388-.112.582c0,.013-.007.019-.007.025a10.967,10.967,0,0,1-.3,1.108c-.069.213-.15.426-.232.639-.075.187-.156.375-.244.557-.062.137-.131.275-.2.407a8.861,8.861,0,0,1-.626,1.064c-.056.087-.119.181-.182.269a.492.492,0,0,1-.087.119q-.1.15-.225.3a3.939,3.939,0,0,1-.295.363,7.608,7.608,0,0,1-.644.7c-.094.1-.194.194-.3.288s-.212.188-.313.276c-.15.125-.3.25-.456.375a12.565,12.565,0,0,1-1.177.8c-.125.076-.257.151-.382.219-.15.082-.3.157-.457.232s-.288.138-.438.2c-.238.1-.482.194-.733.282-.137.05-.275.1-.419.138-.307.094-.613.169-.926.238a3.978,3.978,0,0,1-.463.087,3.8,3.8,0,0,1-.47.069,11.911,11.911,0,0,1-2.366.05,3.907,3.907,0,0,1-.469-.05,3.8,3.8,0,0,1-.47-.069c-.156-.025-.313-.05-.469-.087a12.066,12.066,0,0,1-1.584-.464c-.138-.05-.275-.1-.407-.162a.3.3,0,0,1-.05-.019c-.15-.063-.3-.132-.444-.2a.463.463,0,0,1-.05-.025,4.837,4.837,0,0,1-.464-.238,9.263,9.263,0,0,1-.926-.564.032.032,0,0,1-.025-.012c-.144-.094-.282-.194-.419-.3s-.251-.187-.37-.288c-.175-.144-.338-.287-.5-.438s-.319-.3-.469-.457c-.131-.131-.257-.269-.376-.407a10.915,10.915,0,0,1-1.17-1.589c-.094-.157-.188-.307-.269-.47a5.778,5.778,0,0,1-.276-.544c-.05-.107-.1-.207-.144-.313a2.14,2.14,0,0,1-.087-.207c-.038-.088-.075-.181-.113-.275-.044-.119-.087-.238-.125-.363a.9.9,0,0,1-.05-.144c-.05-.151-.1-.3-.138-.457-.069-.226-.125-.457-.175-.689-.031-.138-.056-.282-.081-.419-.044-.263-.082-.526-.113-.8-.038-.382-.056-.77-.056-1.152v-.019a11.324,11.324,0,0,1,.056-1.133c.006-.037.006-.075.012-.112.019-.182.044-.37.075-.551s.063-.388.113-.582a.039.039,0,0,1,.006-.025,11.242,11.242,0,0,1,.3-1.108c.05-.15.106-.307.163-.457.043-.113.087-.232.137-.344.032-.076.063-.157.1-.232.044-.1.088-.2.138-.3a9.045,9.045,0,0,1,.451-.839c.081-.132.156-.257.238-.388a.119.119,0,0,1,.025-.038c.087-.125.169-.25.256-.369.113-.163.232-.319.357-.476s.251-.307.382-.451.263-.294.4-.438A11.745,11.745,0,0,1,404,61.993c.138-.076.276-.157.413-.232s.282-.144.426-.213.269-.131.407-.188a7.56,7.56,0,0,1,.8-.306c.125-.05.25-.088.381-.126.157-.043.307-.087.464-.131a4.015,4.015,0,0,1,.463-.106,3.97,3.97,0,0,1,.463-.088,4.227,4.227,0,0,1,.47-.069c.156-.019.312-.037.475-.05a11.938,11.938,0,0,1,1.891,0,3.928,3.928,0,0,1,.469.05,4.227,4.227,0,0,1,.47.069,4.108,4.108,0,0,1,.469.088,9.362,9.362,0,0,1,1.152.313c.106.031.206.062.313.1a10.416,10.416,0,0,1,1.539.7c.163.087.32.175.47.269s.3.181.444.281.288.2.426.307l.063.044c.137.106.275.213.413.325s.263.219.388.338a9.533,9.533,0,0,1,.8.8c.106.112.2.219.294.338a6.906,6.906,0,0,1,.457.594c.075.1.144.2.213.3a8.576,8.576,0,0,1,.644,1.089c.082.144.157.294.226.444.012.032.025.057.037.082.075.156.144.319.207.482.012.025.019.05.031.075.056.137.107.275.15.419.032.075.057.163.082.244a11.377,11.377,0,0,1,.3,1.1c.019.112.044.219.063.332.05.287.094.575.125.863.038.382.056.764.056,1.152S420.926,72.446,420.888,72.828Z"/>
        <path class="cls-4" d="M467.392,43.915a2.366,2.366,0,0,0-.163-.633l-.006-.006a2.945,2.945,0,0,0-.188-.363,1.862,1.862,0,0,0-.263-.325c-.05-.05-.094-.1-.144-.144a1.027,1.027,0,0,0-.157-.132h-.006c-.069-.05-.144-.1-.219-.144a1.769,1.769,0,0,0-.538-.225,1.838,1.838,0,0,0-.194-.044,2.3,2.3,0,0,0-.751-.012l-.05.006a2.446,2.446,0,0,1-.526.012,2.378,2.378,0,0,1-1.164-.425,1.07,1.07,0,0,1-.163-.132,1.373,1.373,0,0,1-.169-.162,1.839,1.839,0,0,1-.219-.282c-.057-.094-.113-.194-.163-.294-.025-.057-.05-.113-.069-.169s-.037-.094-.056-.144c-.157-.432-.332-.858-.532-1.277-.007-.007-.007-.019-.013-.025a1.747,1.747,0,0,1-.087-.226,2.173,2.173,0,0,1-.1-.957v-.007a2.677,2.677,0,0,1,.226-.751,2.13,2.13,0,0,1,.475-.644c.069-.063.138-.126.213-.182l.044-.031a2.354,2.354,0,0,0,.194-.163,2.255,2.255,0,0,0,.445-.57,2.682,2.682,0,0,0,.143-.313v-.006a3.057,3.057,0,0,0,.094-.325,2.239,2.239,0,0,0-.438-1.9,20.448,20.448,0,0,0-1.527-1.715,19.9,19.9,0,0,0-1.721-1.534,2.262,2.262,0,0,0-1.947-.431c-.088.025-.169.05-.25.075a2.163,2.163,0,0,0-.883.576,2,2,0,0,0-.182.212l-.043.05a2.3,2.3,0,0,1-1.058.789,2.363,2.363,0,0,1-.47.119.214.214,0,0,1-.062.006.4.4,0,0,1-.125.007,2.038,2.038,0,0,1-.476-.019,1.39,1.39,0,0,1-.351-.088,1.735,1.735,0,0,1-.225-.087c-.1-.044-.194-.094-.294-.132-.138-.069-.282-.131-.426-.188-.244-.1-.482-.194-.732-.281-.006-.007-.013-.007-.025-.013a2.269,2.269,0,0,1-1.44-2.291l.006-.031.025-.182v-.018A2.3,2.3,0,0,0,448.9,25.18a1.744,1.744,0,0,0-.257-.05,21.222,21.222,0,0,0-4.6,0,2.3,2.3,0,0,0-2.016,2.491l.019.169a2.032,2.032,0,0,1,.025.338,2.309,2.309,0,0,1-1.3,2.085l-.188.075c-.238.087-.475.181-.707.275-.194.082-.376.163-.563.244-.044.019-.094.044-.138.063a2.285,2.285,0,0,1-2.8-.732l-.013-.013a2.32,2.32,0,0,0-3.1-.576c-.069.044-.138.094-.207.144a20.749,20.749,0,0,0-3.2,3.205,2.269,2.269,0,0,0-.4,2.1,2.025,2.025,0,0,0,.275.607,2.716,2.716,0,0,0,.338.413,2.759,2.759,0,0,0,.22.182l.012.013a2.283,2.283,0,0,1,.732,2.8q-.318.7-.582,1.409a2.266,2.266,0,0,1-.457.757,3.25,3.25,0,0,1-.388.332,2.648,2.648,0,0,1-.457.238,2.025,2.025,0,0,1-.331.106,2.362,2.362,0,0,1-.864.032,2.032,2.032,0,0,0-.338-.025,2.4,2.4,0,0,0-.426.037,2.3,2.3,0,0,0-1.9,2.016,19.567,19.567,0,0,0,0,4.538,2.312,2.312,0,0,0,1.9,2.015,2.408,2.408,0,0,0,.764.013,2.016,2.016,0,0,1,.338-.025,2.363,2.363,0,0,1,1.314.4,2.293,2.293,0,0,1,.269.219,2.205,2.205,0,0,1,.576.87q.264.714.582,1.409a2.278,2.278,0,0,1-.519,2.622c-.069.063-.138.119-.213.176v.006l-.012.006c-.076.057-.151.119-.22.182a2.766,2.766,0,0,0-.338.413,2.037,2.037,0,0,0-.275.607c-.019.069-.031.138-.044.207s-.025.137-.031.206a1.337,1.337,0,0,0-.019.232v.012c0,.025.006.044.006.069a3,3,0,0,0,.032.326,2.827,2.827,0,0,0,.081.313.069.069,0,0,1,.006.031.049.049,0,0,0,.013.031c.012.038.025.069.037.107.032.075.069.15.107.225.006.012.019.025.025.038s.019.031.025.043a1.786,1.786,0,0,0,.163.263,19.958,19.958,0,0,0,3.2,3.2,2.347,2.347,0,0,0,3.312-.438l.181-.213a2.4,2.4,0,0,1,.9-.6l.788-.137a2.26,2.26,0,0,1,.939.206,15.029,15.029,0,0,0,1.4.582,2.252,2.252,0,0,1,1.1.852,2.2,2.2,0,0,1,.238.457,2.329,2.329,0,0,1,.138,1.2V64.6a2.314,2.314,0,0,0,1.79,2.6.022.022,0,0,0,.019.007,1.284,1.284,0,0,0,.219.037,19.349,19.349,0,0,0,2.272.132,20.609,20.609,0,0,0,2.26-.126,2.28,2.28,0,0,0,1.4-.7,2.4,2.4,0,0,0,.369-.5,2.028,2.028,0,0,0,.132-.282,2.326,2.326,0,0,0,.131-1.177,2.016,2.016,0,0,1-.025-.338,2.287,2.287,0,0,1,1.49-2.166c.476-.169.939-.363,1.4-.575l.006-.007a2.268,2.268,0,0,1,1.972.038,2.644,2.644,0,0,1,.451.294,1.478,1.478,0,0,1,.2.194,1.428,1.428,0,0,1,.181.207l.007.012a2.322,2.322,0,0,0,3.092.589,1.617,1.617,0,0,0,.213-.151,22.649,22.649,0,0,0,1.7-1.514c.538-.545,1.045-1.115,1.515-1.7a2.292,2.292,0,0,0,.394-2.115,2.754,2.754,0,0,0-.113-.3,1.926,1.926,0,0,0-.162-.294,2.766,2.766,0,0,0-.338-.413c-.069-.063-.144-.125-.219-.182l-.013-.006v-.006c-.075-.057-.144-.113-.213-.176a2.287,2.287,0,0,1-.519-2.622,15.147,15.147,0,0,0,.582-1.409,2.3,2.3,0,0,1,2.5-1.464,2.356,2.356,0,0,0,1.558-.313,2.636,2.636,0,0,0,.326-.244c.05-.05.1-.094.15-.144s.081-.094.119-.138a2.274,2.274,0,0,0,.5-1.189,19.716,19.716,0,0,0,0-4.538Zm-9.865,3.417a.621.621,0,0,0-.013.113c-.025.188-.05.369-.075.551s-.062.388-.113.582c0,.012-.006.019-.006.025a11.039,11.039,0,0,1-.3,1.108c-.069.213-.15.425-.232.638-.075.188-.156.376-.244.557-.063.138-.131.276-.2.407a8.784,8.784,0,0,1-.626,1.064c-.057.088-.119.182-.182.269a.481.481,0,0,1-.087.119c-.069.1-.144.2-.226.3a3.768,3.768,0,0,1-.294.363,7.48,7.48,0,0,1-.645.7c-.094.1-.194.194-.294.288l-.313.275c-.15.125-.3.251-.457.376a12.435,12.435,0,0,1-1.177.8c-.125.075-.256.15-.381.219-.151.082-.3.157-.457.232s-.288.137-.438.2q-.357.15-.733.282c-.137.05-.275.1-.419.137-.307.094-.614.169-.927.238a3.711,3.711,0,0,1-.463.088,4.21,4.21,0,0,1-.469.069,11.991,11.991,0,0,1-2.366.05,3.945,3.945,0,0,1-.47-.05,4.21,4.21,0,0,1-.469-.069c-.157-.025-.313-.05-.47-.088a12,12,0,0,1-1.583-.463,4.37,4.37,0,0,1-.407-.163.258.258,0,0,1-.05-.018c-.15-.063-.3-.132-.445-.2a.328.328,0,0,1-.05-.025,4.6,4.6,0,0,1-.463-.238,9.254,9.254,0,0,1-.926-.563.03.03,0,0,1-.025-.013c-.144-.093-.282-.194-.42-.3s-.25-.188-.369-.288c-.175-.144-.338-.288-.5-.438s-.319-.3-.469-.457c-.132-.131-.257-.269-.376-.407a10.978,10.978,0,0,1-1.17-1.59c-.094-.156-.188-.306-.269-.469a5.455,5.455,0,0,1-.276-.545c-.05-.106-.1-.206-.144-.313a2.121,2.121,0,0,1-.087-.206c-.038-.088-.076-.182-.113-.276-.044-.119-.088-.238-.125-.363a.9.9,0,0,1-.05-.144c-.05-.15-.1-.3-.138-.457-.069-.225-.125-.457-.175-.688-.032-.138-.057-.282-.082-.42-.044-.262-.081-.525-.112-.794-.038-.382-.057-.77-.057-1.152v-.019a11.31,11.31,0,0,1,.057-1.133c.006-.038.006-.075.012-.113.019-.181.044-.369.075-.55s.063-.389.113-.583a.04.04,0,0,1,.006-.025,11.394,11.394,0,0,1,.3-1.108c.05-.15.106-.306.162-.456.044-.113.088-.232.138-.345.031-.075.063-.156.1-.231.044-.1.088-.2.138-.3a9.175,9.175,0,0,1,.451-.839c.081-.131.156-.256.237-.388a.139.139,0,0,1,.026-.037c.087-.125.169-.251.256-.37.113-.162.232-.319.357-.475s.25-.307.382-.451.263-.294.4-.438a11.785,11.785,0,0,1,2.329-1.828c.138-.075.275-.156.413-.231s.282-.144.426-.213.269-.132.406-.188a7.8,7.8,0,0,1,.795-.307c.126-.05.251-.087.382-.125.157-.044.307-.088.463-.131a4.086,4.086,0,0,1,.464-.107,3.926,3.926,0,0,1,.463-.087,3.789,3.789,0,0,1,.469-.069c.157-.019.313-.038.476-.05a11.926,11.926,0,0,1,1.89,0,3.945,3.945,0,0,1,.47.05,3.789,3.789,0,0,1,.469.069,4.08,4.08,0,0,1,.47.087,9.664,9.664,0,0,1,1.151.313c.107.032.207.063.313.1a10.638,10.638,0,0,1,1.54.7c.163.088.319.175.47.269s.3.182.444.282.288.2.426.307c.019.012.044.031.062.044.138.106.276.212.413.325s.263.219.389.338a9.819,9.819,0,0,1,.794.8c.107.113.2.219.3.338a6.966,6.966,0,0,1,.457.595c.075.1.144.2.212.3a8.726,8.726,0,0,1,.645,1.089c.082.144.157.3.226.445.012.031.025.056.037.081.075.157.144.319.207.482.012.025.018.05.031.075.056.138.106.276.15.42.031.075.056.162.082.244.118.363.219.732.3,1.1.019.113.044.22.063.332.05.288.093.576.125.864.037.382.056.764.056,1.152S457.564,46.95,457.527,47.332Z"/>
        <path class="cls-4" d="M215.952,75.05a2.359,2.359,0,0,0-.163-.632l-.006-.006a2.808,2.808,0,0,0-.188-.363,1.869,1.869,0,0,0-.263-.326c-.05-.05-.094-.1-.144-.144a1,1,0,0,0-.156-.131h-.007c-.069-.05-.144-.1-.219-.144a1.72,1.72,0,0,0-.538-.225,1.619,1.619,0,0,0-.194-.044,2.331,2.331,0,0,0-.751-.013l-.05.006a2.513,2.513,0,0,1-.526.013,2.389,2.389,0,0,1-1.164-.426,1.007,1.007,0,0,1-.163-.131,1.379,1.379,0,0,1-.169-.163,1.854,1.854,0,0,1-.219-.282c-.056-.093-.113-.194-.163-.294-.025-.056-.05-.112-.069-.169s-.037-.094-.056-.144c-.157-.432-.332-.857-.532-1.277-.006-.006-.006-.018-.013-.025a1.735,1.735,0,0,1-.087-.225,2.161,2.161,0,0,1-.1-.958v-.006a2.633,2.633,0,0,1,.225-.751,2.15,2.15,0,0,1,.476-.645c.068-.062.137-.125.212-.181l.044-.032a2.344,2.344,0,0,0,.194-.162,2.255,2.255,0,0,0,.445-.57,2.953,2.953,0,0,0,.144-.313v-.006a3.33,3.33,0,0,0,.094-.326,2.238,2.238,0,0,0-.439-1.9,20.292,20.292,0,0,0-1.527-1.715,19.9,19.9,0,0,0-1.721-1.534,2.263,2.263,0,0,0-1.947-.432c-.088.025-.169.05-.25.075a2.19,2.19,0,0,0-.883.576,2.112,2.112,0,0,0-.181.213l-.044.05a2.3,2.3,0,0,1-1.058.789,2.371,2.371,0,0,1-.469.119.225.225,0,0,1-.063.006.427.427,0,0,1-.125.006,1.987,1.987,0,0,1-.476-.019,1.33,1.33,0,0,1-.35-.087,1.574,1.574,0,0,1-.226-.088c-.1-.044-.194-.094-.294-.131-.138-.069-.282-.132-.426-.188-.244-.1-.482-.194-.732-.282-.006-.006-.013-.006-.025-.012a2.27,2.27,0,0,1-1.44-2.291l.007-.032.025-.181v-.019a2.3,2.3,0,0,0-1.747-2.566,1.633,1.633,0,0,0-.256-.05,21.232,21.232,0,0,0-4.6,0,2.3,2.3,0,0,0-2.016,2.491l.019.169a2.024,2.024,0,0,1,.025.338,2.306,2.306,0,0,1-1.3,2.084l-.188.075c-.237.088-.475.182-.707.276-.194.081-.375.163-.563.244-.044.019-.094.044-.138.063a2.286,2.286,0,0,1-2.8-.733l-.012-.012a2.319,2.319,0,0,0-3.1-.576c-.069.044-.138.094-.206.144a20.814,20.814,0,0,0-3.205,3.205,2.268,2.268,0,0,0-.4,2.1,2.039,2.039,0,0,0,.276.607,2.647,2.647,0,0,0,.338.413c.068.063.144.125.219.182l.012.012a2.286,2.286,0,0,1,.733,2.8q-.319.694-.583,1.408a2.268,2.268,0,0,1-.456.758,3.355,3.355,0,0,1-.389.332,2.671,2.671,0,0,1-.456.237,2.071,2.071,0,0,1-.332.107,2.362,2.362,0,0,1-.864.031,2.024,2.024,0,0,0-.338-.025,2.4,2.4,0,0,0-.426.038,2.305,2.305,0,0,0-1.9,2.015,19.567,19.567,0,0,0,0,4.538,2.313,2.313,0,0,0,1.9,2.016,2.38,2.38,0,0,0,.764.012,2.136,2.136,0,0,1,.338-.025,2.351,2.351,0,0,1,1.314.4,2.39,2.39,0,0,1,.27.219,2.214,2.214,0,0,1,.575.87q.264.714.583,1.408a2.281,2.281,0,0,1-.52,2.623,2.75,2.75,0,0,1-.213.175v.007l-.012.006c-.075.056-.151.119-.219.181a2.655,2.655,0,0,0-.338.414,2.028,2.028,0,0,0-.276.607c-.019.069-.031.137-.044.206s-.025.138-.031.207a1.44,1.44,0,0,0-.019.231v.013c0,.025.007.044.007.069a2.748,2.748,0,0,0,.031.325,2.938,2.938,0,0,0,.081.313.064.064,0,0,1,.007.032.049.049,0,0,0,.012.031l.038.106c.031.075.068.15.106.226.006.012.019.025.025.037s.019.031.025.044a1.84,1.84,0,0,0,.163.263,19.951,19.951,0,0,0,1.515,1.7,20.219,20.219,0,0,0,1.69,1.509,2.264,2.264,0,0,0,1.646.488,2.319,2.319,0,0,0,.582-.132,2.288,2.288,0,0,0,1.083-.794l.181-.213a2.392,2.392,0,0,1,.9-.6l.788-.138a2.242,2.242,0,0,1,.939.207,15.029,15.029,0,0,0,1.4.582,2.253,2.253,0,0,1,1.1.851,2.3,2.3,0,0,1,.237.457,2.334,2.334,0,0,1,.138,1.2v.012a2.315,2.315,0,0,0,1.79,2.6.025.025,0,0,0,.019.006,1.193,1.193,0,0,0,.219.038,19.568,19.568,0,0,0,2.272.131,20.86,20.86,0,0,0,2.26-.125,2.286,2.286,0,0,0,1.4-.7,2.382,2.382,0,0,0,.369-.5,1.861,1.861,0,0,0,.132-.281,2.315,2.315,0,0,0,.131-1.177,2.145,2.145,0,0,1-.025-.338,2.287,2.287,0,0,1,1.49-2.166c.476-.169.939-.363,1.4-.576l.006-.006a2.268,2.268,0,0,1,1.972.037,2.671,2.671,0,0,1,.451.3,3.595,3.595,0,0,1,.382.4l.006.013a2.322,2.322,0,0,0,3.092.588,1.708,1.708,0,0,0,.213-.15,20.2,20.2,0,0,0,3.211-3.211,2.294,2.294,0,0,0,.394-2.116,3.042,3.042,0,0,0-.112-.3,1.972,1.972,0,0,0-.163-.294,2.713,2.713,0,0,0-.338-.414c-.069-.062-.144-.125-.219-.181l-.013-.006v-.007a2.75,2.75,0,0,1-.213-.175,2.289,2.289,0,0,1-.519-2.623,15.129,15.129,0,0,0,.582-1.408,2.3,2.3,0,0,1,2.5-1.465,2.345,2.345,0,0,0,1.558-.313,2.54,2.54,0,0,0,.326-.244c.05-.05.1-.094.15-.144s.081-.094.119-.137a2.266,2.266,0,0,0,.5-1.19,19.716,19.716,0,0,0,0-4.538Zm-9.865,3.418a.711.711,0,0,0-.013.113c-.025.187-.05.369-.075.55s-.062.388-.112.582c0,.013-.007.019-.007.026a11.02,11.02,0,0,1-.3,1.107c-.069.213-.15.426-.232.639-.075.188-.156.375-.244.557-.062.138-.131.275-.2.407a8.784,8.784,0,0,1-.626,1.064c-.056.088-.119.181-.182.269a.474.474,0,0,1-.087.119c-.069.1-.144.2-.226.3a3.66,3.66,0,0,1-.294.364,7.608,7.608,0,0,1-.644.7c-.094.1-.194.194-.295.288l-.313.275c-.15.125-.3.25-.457.375a12.43,12.43,0,0,1-1.176.8c-.126.075-.257.15-.382.219-.15.081-.3.156-.457.231s-.288.138-.438.2q-.357.15-.733.281c-.137.05-.275.1-.419.138-.307.094-.613.169-.926.238a10.891,10.891,0,0,1-.933.156,11.911,11.911,0,0,1-2.366.05,3.945,3.945,0,0,1-.47-.05,3.985,3.985,0,0,1-.469-.068c-.156-.025-.313-.051-.469-.088a12.016,12.016,0,0,1-1.584-.463c-.138-.05-.275-.1-.407-.163a.3.3,0,0,1-.05-.019c-.15-.062-.3-.131-.444-.2a.388.388,0,0,1-.051-.025,4.712,4.712,0,0,1-.463-.238,9.444,9.444,0,0,1-.926-.563.032.032,0,0,1-.025-.013c-.144-.094-.282-.194-.42-.3s-.25-.188-.369-.288c-.175-.144-.338-.288-.5-.438s-.319-.3-.469-.457c-.131-.132-.257-.27-.376-.407a10.978,10.978,0,0,1-1.17-1.59c-.094-.157-.188-.307-.269-.47a5.659,5.659,0,0,1-.276-.544c-.05-.107-.1-.207-.144-.313a2.14,2.14,0,0,1-.087-.207c-.038-.087-.075-.181-.113-.275-.044-.119-.088-.238-.125-.363a.9.9,0,0,1-.05-.144c-.05-.15-.1-.3-.138-.457-.069-.225-.125-.457-.175-.689-.031-.137-.057-.281-.082-.419-.043-.263-.081-.526-.112-.8-.038-.382-.057-.77-.057-1.152V77.3a11.3,11.3,0,0,1,.057-1.133c.006-.038.006-.075.012-.113.019-.182.044-.369.075-.551s.063-.388.113-.582a.039.039,0,0,1,.006-.025,11.242,11.242,0,0,1,.3-1.108c.05-.15.106-.307.163-.457.043-.113.087-.231.137-.344.032-.075.063-.157.1-.232.044-.1.088-.2.138-.3a9.045,9.045,0,0,1,.451-.839c.081-.131.156-.257.238-.388a.119.119,0,0,1,.025-.038c.087-.125.169-.25.256-.369.113-.163.232-.319.357-.476s.25-.306.382-.45.263-.294.4-.438a11.75,11.75,0,0,1,2.328-1.828c.138-.075.275-.157.413-.232s.282-.144.426-.213.269-.131.407-.187a7.706,7.706,0,0,1,.8-.307,3.771,3.771,0,0,1,.381-.125l.464-.132a4.015,4.015,0,0,1,.463-.106,3.97,3.97,0,0,1,.463-.088,4.21,4.21,0,0,1,.469-.069c.157-.018.313-.037.476-.05a11.938,11.938,0,0,1,1.891,0,4.146,4.146,0,0,1,.469.05,4.21,4.21,0,0,1,.469.069,4.084,4.084,0,0,1,.47.088,9.362,9.362,0,0,1,1.152.313c.106.031.206.062.313.1a10.521,10.521,0,0,1,1.539.695c.163.087.32.175.47.269s.3.181.444.282.288.2.426.306c.019.013.044.032.063.044.137.107.275.213.413.326s.263.219.388.338a9.375,9.375,0,0,1,.8.8c.106.112.2.219.294.338a6.906,6.906,0,0,1,.457.594c.075.1.144.2.213.3a8.576,8.576,0,0,1,.644,1.089c.082.144.157.294.226.445.012.031.025.056.037.081.075.156.144.319.207.482.012.025.019.05.031.075.056.138.107.275.15.419.032.075.057.163.082.244.119.364.219.733.3,1.1.019.113.044.219.063.332.05.288.094.576.125.864.037.381.056.763.056,1.151S206.124,78.086,206.087,78.468Z"/>
      </g>
      <g>
        <rect class="cls-5" x="488.378" y="314.339" width="59.394" height="69.581"/>
        <rect class="cls-6" x="488.378" y="314.339" width="59.394" height="20.636"/>
        <rect class="cls-6" x="488.378" y="338.812" width="59.394" height="20.636"/>
        <rect class="cls-6" x="488.378" y="363.284" width="59.394" height="20.636"/>
        <rect class="cls-7" x="488.378" y="383.92" width="5.413" height="3.361"/>
        <rect class="cls-7" x="542.359" y="383.92" width="5.413" height="3.361"/>
        <rect class="cls-8" x="491.779" y="317.151" width="2.012" height="15.504"/>
        <rect class="cls-8" x="495.867" y="317.151" width="2.012" height="15.504"/>
        <rect class="cls-8" x="499.955" y="317.151" width="2.012" height="15.504"/>
        <rect class="cls-8" x="504.043" y="317.151" width="2.012" height="15.504"/>
        <rect class="cls-9" x="508.676" y="317.151" width="35.762" height="15.504"/>
        <rect class="cls-8" x="491.779" y="341.378" width="2.012" height="15.504"/>
        <rect class="cls-8" x="495.867" y="341.378" width="2.012" height="15.504"/>
        <rect class="cls-8" x="499.955" y="341.378" width="2.012" height="15.504"/>
        <rect class="cls-8" x="504.043" y="341.378" width="2.012" height="15.504"/>
        <rect class="cls-8" x="508.131" y="341.378" width="2.012" height="15.504"/>
        <rect class="cls-8" x="512.219" y="341.378" width="2.012" height="15.504"/>
        <rect class="cls-8" x="516.307" y="341.378" width="2.012" height="15.504"/>
        <rect class="cls-9" x="520.819" y="341.378" width="23.619" height="15.504"/>
        <rect class="cls-8" x="491.779" y="365.605" width="2.012" height="15.504"/>
        <rect class="cls-8" x="495.867" y="365.605" width="2.012" height="15.504"/>
        <rect class="cls-8" x="499.955" y="365.605" width="2.012" height="15.504"/>
        <rect class="cls-8" x="504.043" y="365.605" width="2.012" height="15.504"/>
        <rect class="cls-8" x="534.25" y="365.605" width="2.012" height="15.504"/>
        <rect class="cls-8" x="538.338" y="365.605" width="2.012" height="15.504"/>
        <rect class="cls-8" x="542.426" y="365.605" width="2.012" height="15.504"/>
        <rect class="cls-9" x="508.676" y="365.605" width="23.134" height="15.504"/>
      </g>
      <g>
        <line class="cls-10" x1="457.253" y1="172.194" x2="459.753" y2="172.194"/>
        <line class="cls-11" x1="464.85" y1="172.194" x2="513.27" y2="172.194"/>
        <polyline class="cls-10" points="515.818 172.194 518.318 172.194 518.318 174.694"/>
        <line class="cls-12" x1="518.318" y1="179.774" x2="518.318" y2="309.299"/>
        <line class="cls-10" x1="518.318" y1="311.839" x2="518.318" y2="314.339"/>
      </g>
      <g>
        <g>
          <g>
            <rect class="cls-13" x="255.974" y="317.634" width="62.176" height="58.759"/>
            <path class="cls-14" d="M194.72,372.532H379.4a7.322,7.322,0,0,1,7.322,7.322v7.317a0,0,0,0,1,0,0H187.4a0,0,0,0,1,0,0v-7.317A7.322,7.322,0,0,1,194.72,372.532Z"/>
            <rect class="cls-14" x="116.87" y="101.209" width="340.383" height="238.805" rx="7.422" ry="7.422"/>
            <path class="cls-9" d="M446.708,112.769V308.1a2.624,2.624,0,0,1-2.627,2.627H129a2.624,2.624,0,0,1-2.627-2.627V112.769A2.633,2.633,0,0,1,129,110.133H444.081A2.633,2.633,0,0,1,446.708,112.769Z"/>
            <path class="cls-15" d="M435.257,325.831a6.368,6.368,0,1,1-6.368-6.367A6.368,6.368,0,0,1,435.257,325.831Z"/>
          </g>
          <g class="cls-16">
            <rect class="cls-17" x="215.612" y="115.549" width="224.139" height="150.66" rx="10.231" ry="10.231"/>
          </g>
          <path class="cls-18" d="M402.286,110.133V286.078a15.868,15.868,0,0,1-15.865,15.865H157.992a15.868,15.868,0,0,1-15.865-15.865V110.133Z"/>
          <g>
            <rect class="cls-17" x="147.824" y="77.322" width="266.872" height="214.807" rx="11.145" ry="11.145"/>
            <path class="cls-14" d="M403.552,77.322H158.969a11.145,11.145,0,0,0-11.145,11.145v9.755H414.7V88.467A11.145,11.145,0,0,0,403.552,77.322Z"/>
            <path class="cls-17" d="M381.983,88.155a3.214,3.214,0,1,1-3.214-3.214A3.213,3.213,0,0,1,381.983,88.155Z"/>
            <path class="cls-17" d="M395.08,88.155a3.214,3.214,0,1,1-3.213-3.214A3.213,3.213,0,0,1,395.08,88.155Z"/>
            <path class="cls-17" d="M408.178,88.155a3.214,3.214,0,1,1-3.214-3.214A3.213,3.213,0,0,1,408.178,88.155Z"/>
          </g>
        </g>
        <g>
          <rect class="cls-19" x="320.897" y="110.297" width="82.262" height="4.49"/>
          <g>
            <polyline class="cls-10" points="403.159 277.297 403.159 279.797 400.659 279.797"/>
            <line class="cls-20" x1="395.737" y1="279.797" x2="161.977" y2="279.797"/>
            <polyline class="cls-10" points="159.517 279.797 157.017 279.797 157.017 277.297"/>
            <line class="cls-21" x1="157.017" y1="272.122" x2="157.017" y2="202.258"/>
            <polyline class="cls-10" points="157.017 199.67 157.017 197.17 159.517 197.17"/>
            <line class="cls-20" x1="164.438" y1="197.17" x2="398.198" y2="197.17"/>
            <polyline class="cls-10" points="400.659 197.17 403.159 197.17 403.159 199.67"/>
            <line class="cls-21" x1="403.159" y1="204.845" x2="403.159" y2="274.71"/>
          </g>
          <rect class="cls-19" x="320.897" y="120.239" width="82.262" height="4.49"/>
          <rect class="cls-19" x="261.405" y="130.181" width="141.754" height="4.49"/>
          <rect class="cls-19" x="261.405" y="140.123" width="141.754" height="4.49"/>
          <rect class="cls-19" x="261.405" y="150.065" width="141.754" height="4.49"/>
          <rect class="cls-19" x="261.405" y="160.007" width="141.754" height="4.49"/>
          <rect class="cls-19" x="261.405" y="169.949" width="141.754" height="4.49"/>
          <rect class="cls-19" x="261.405" y="179.891" width="94.289" height="4.49"/>
          <g>
            <polyline class="cls-10" points="253.94 181.881 253.94 184.381 251.44 184.381"/>
            <line class="cls-22" x1="246.636" y1="184.381" x2="162.557" y2="184.381"/>
            <polyline class="cls-10" points="160.155 184.381 157.655 184.381 157.655 181.881"/>
            <line class="cls-23" x1="157.655" y1="176.567" x2="157.655" y2="115.454"/>
            <polyline class="cls-10" points="157.655 112.797 157.655 110.297 160.155 110.297"/>
            <line class="cls-22" x1="164.96" y1="110.297" x2="249.038" y2="110.297"/>
            <polyline class="cls-10" points="251.44 110.297 253.94 110.297 253.94 112.797"/>
            <line class="cls-23" x1="253.94" y1="118.111" x2="253.94" y2="179.224"/>
          </g>
        </g>
        <g>
          <g>
            <rect class="cls-3" x="261.405" y="110.297" width="14.174" height="14.174" rx="1.133" ry="1.133"/>
            <polyline class="cls-24" points="270.129 120.906 266.607 117.384 270.129 113.862"/>
          </g>
          <g>
            <rect class="cls-3" x="300.669" y="110.297" width="14.174" height="14.174" rx="1.133" ry="1.133"/>
            <polyline class="cls-24" points="306.588 120.906 310.11 117.384 306.588 113.862"/>
          </g>
          <g>
            <rect class="cls-3" x="280.765" y="110.297" width="14.174" height="14.174" rx="1.133" ry="1.133"/>
            <line class="cls-24" x1="289.705" y1="113.862" x2="286.257" y2="120.906"/>
          </g>
        </g>
        <g>
          <g>
            <rect class="cls-14" x="155.865" y="108.406" width="5.157" height="5.157"/>
            <rect class="cls-14" x="251.362" y="108.406" width="5.157" height="5.157"/>
            <rect class="cls-14" x="155.865" y="145.776" width="5.157" height="5.157"/>
            <rect class="cls-14" x="251.362" y="145.776" width="5.157" height="5.157"/>
            <rect class="cls-14" x="203.613" y="108.406" width="5.157" height="5.157"/>
          </g>
          <g>
            <rect class="cls-14" x="155.865" y="181.802" width="5.157" height="5.157"/>
            <rect class="cls-14" x="251.362" y="181.802" width="5.157" height="5.157"/>
            <rect class="cls-14" x="203.613" y="181.802" width="5.157" height="5.157"/>
          </g>
        </g>
        <g>
          <g>
            <rect class="cls-14" x="154.438" y="194.384" width="5.157" height="5.157"/>
            <rect class="cls-14" x="400.58" y="194.384" width="5.157" height="5.157"/>
            <rect class="cls-14" x="154.438" y="231.754" width="5.157" height="5.157"/>
            <rect class="cls-14" x="400.58" y="231.754" width="5.157" height="5.157"/>
            <rect class="cls-14" x="281.472" y="194.384" width="5.157" height="5.157"/>
          </g>
          <g>
            <rect class="cls-14" x="154.438" y="277.219" width="5.157" height="5.157"/>
            <rect class="cls-14" x="400.58" y="277.219" width="5.157" height="5.157"/>
            <rect class="cls-14" x="281.472" y="277.219" width="5.157" height="5.157"/>
          </g>
        </g>
        <g>
          <circle class="cls-9" cx="281.261" cy="239.671" r="21.666"/>
          <polygon class="cls-3" points="275.347 252.268 275.347 227.075 292.754 239.671 275.347 252.268"/>
        </g>
      </g>
      <g>
        <path class="cls-25" d="M132.5,321.468v62.45a2.868,2.868,0,0,1-2.86,2.87h-70v-57.7a2.945,2.945,0,0,1,2.94-2.94h44.5a2.936,2.936,0,0,0,2.94-2.93v-1.75a2.938,2.938,0,0,1,2.94-2.94h16.61A2.936,2.936,0,0,1,132.5,321.468Z"/>
        <path class="cls-26" d="M64.84,327.729h64.493a1.5,1.5,0,0,1,1.5,1.5v49.792a1.5,1.5,0,0,1-1.5,1.5H64.84a1.5,1.5,0,0,1-1.5-1.5V329.233A1.5,1.5,0,0,1,64.84,327.729Z"/>
        <path class="cls-27" d="M63.09,329.729h64.493a1.5,1.5,0,0,1,1.5,1.5v49.792a1.5,1.5,0,0,1-1.5,1.5H63.09a1.5,1.5,0,0,1-1.5-1.5V331.233A1.5,1.5,0,0,1,63.09,329.729Z"/>
        <path class="cls-28" d="M129.77,386.784H59.116a2.733,2.733,0,0,1-2.686-2.225L47.356,336.68a2.734,2.734,0,0,1,2.686-3.243H120.7a2.733,2.733,0,0,1,2.685,2.225l9.074,47.88A2.734,2.734,0,0,1,129.77,386.784Z"/>
      </g>
      <g>
        <line class="cls-29" x1="19.605" y1="386.788" x2="575.08" y2="386.788"/>
        <line class="cls-29" x1="15.58" y1="386.784" x2="4.08" y2="386.784"/>
        <line class="cls-29" x1="579.508" y1="386.788" x2="605.33" y2="386.788"/>
      </g>
      <g>
        <g>
          <g>
            <path class="cls-30" d="M452.1,389.433a10.53,10.53,0,0,1-4.373,3.312c-2.333,1.041-7.282,1.532-4.533,2.45s5.953.362,7.578.1,3.128.246,5.044.234c2.525-.017,2.611-.715,2.271-3.563C457.617,388.049,453.234,387.219,452.1,389.433Z"/>
            <path class="cls-30" d="M497.427,386.757c-.141.791.981,3.187-1.027,4.945s-6.566,3.609-3.544,3.679a17.591,17.591,0,0,0,7.459-1.39c1.536-.76.31-1.954,2.216-2.555,2.512-.793,1.993-2.639.688-3.781C501.547,383.892,497.879,384.2,497.427,386.757Z"/>
            <path class="cls-31" d="M488.225,308.245s6.017-17.692-11.055-32.268c0,0-9.151,3.643-16.478,4.083a38.1,38.1,0,0,1-9.2-.378s-1.373,15.8-1.393,24.272Z"/>
            <path class="cls-31" d="M453.821,289.576c-1.342.506-2.994,2.535-3.727,14.378-.171,2.778-1.3,24.185-1.691,29.4a15.207,15.207,0,0,0,0,2.388,9.079,9.079,0,0,0-.064,1.543c.354,8.459,3.926,35.551,3.737,51.909a3.831,3.831,0,0,0,1.38,1.139,6.568,6.568,0,0,0,4.463.034c1.169-13.17,9.905-40.772,3.822-53.226,2.417-7.758,7.8-24.452,8.891-30.9C472.4,295.815,460.53,287.044,453.821,289.576Z"/>
            <path class="cls-31" d="M488.376,339.36c-.49-8.267.982-29.3-.455-35.8-2.278-10.323-14.167-14.6-19.434-9.736-1.054.973-1.808,6.678-.954,9.328s5.747,32.377,7.341,37.358c.225.7.943,2.837,1.124,3.348,2.831,7.978,16.2,29,20.841,44.684a6.991,6.991,0,0,0,1.729.307,6.272,6.272,0,0,0,4.952-1.741C500.752,374.157,499.434,350.321,488.376,339.36Z"/>
            <path class="cls-32" d="M413.14,233.66s-2.161-2.37-2.789-3.277-3.626-1.06-4.463-2.831-2.58-4.212-.7-5.118,1.813-.977,2.3-1.674-3.138-3.347-3.765-5.369,5.02,2.719,5.857,3.905,2.162.139,3,2.231,1.046,4.742,3.137,7.74"/>
            <path class="cls-28" d="M448.009,226.418c-4.131,3.541-11.044,13.347-14.31,17.85-6.181-7.51-18.423-17.314-18.423-17.314s-5.555,4.161-4.688,5.008,18.053,25.6,22.363,25.928a3.054,3.054,0,0,0,1.626-.4c-.009.01,6.154-2.421,15.16-12.406a3.022,3.022,0,0,1,4.64-.339l2.655-21.232S451.294,223.942,448.009,226.418Z"/>
            <g>
              <path class="cls-28" d="M447.181,228.411a22.555,22.555,0,0,1,15.4-5.4c5.424.171,20.2,1.066,21.846,4.695.844,1.854,1.75,20.849.515,27.4-.929,4.925-3.306,17.124-3.306,20.069s1.582,4.206.844,5.061c-1.653,1.915-12.956,2.719-18.262,2.719-4.723,0-12.762-1.259-13.17-2.773-.191-.711.177-4.633-.041-9.768-.472-11.086-1.611-27.825-2.46-30.107C447.607,237.77,445.01,230.217,447.181,228.411Z"/>
              <path class="cls-33" d="M448.7,235.448s.271,2.068.589,5.177c.145,1.555.347,3.367.5,5.313s.327,4.021.5,6.1c.127,2.072.292,4.162.371,6.111.1,1.95.131,3.773.189,5.333.087,3.123.084,5.208.084,5.208s-.239-2.072-.506-5.186c-.241-3.113-.563-7.263-.885-11.414-.135-2.078-.27-4.156-.4-6.1s-.192-3.769-.275-5.329C448.733,237.533,448.7,235.448,448.7,235.448Z"/>
              <path class="cls-32" d="M471.445,223.869s-5.676,3.9-9.477,3.659c-1.85-.871-2.97-3.742-2.97-3.742a9.8,9.8,0,0,0,1.468-.83,22.9,22.9,0,0,0,.258-3.992c.008-.547.025-1.062.025-1.477.016-.572.016-.954.016-.954l11.252-4.788a18.582,18.582,0,0,0-1.551,4.763,55.54,55.54,0,0,0-.282,6.348C470.184,223.354,471.445,223.869,471.445,223.869Z"/>
              <path class="cls-34" d="M457.292,194.646a29,29,0,0,0-1.478,5.143,2.094,2.094,0,0,0,1.2,2.271c.343.171,2.185-7.2,2.185-7.2"/>
              <path class="cls-32" d="M464.756,192.706c-1.373.374-4.993-.374-5.991,1.123s-1.872,5.117-2.247,6.116c-.745,1.988-1.231,4.112-1.772,6.161-.706,2.67-1.869,7.562.743,9.8a3.48,3.48,0,0,0,2.016,1.022c1.236.224,2.467.478,3.7.7,1.917.344,4.04.745,5.944.126,2.544-.826,3.938-4.323,4.592-6.7l3.744-13.6Z"/>
              <path class="cls-33" d="M470.188,221.356a8.541,8.541,0,0,1,2.632,2.515c-1.119,2.56-3.648,7.106-6.433,9.177a14.917,14.917,0,0,0-3.217-5.3A24.086,24.086,0,0,0,470.188,221.356Z"/>
              <path class="cls-33" d="M461.545,227.539a9.585,9.585,0,0,0-3.9,4.1,20.683,20.683,0,0,1,.588-7.632s1.782-2.28,2.4-2.327A14.766,14.766,0,0,0,461.545,227.539Z"/>
              <g>
                <path class="cls-9" d="M474.6,243.476l33.85,40.8a1.871,1.871,0,0,1-.239,2.641l-28.085,23.3a1.871,1.871,0,0,1-2.64-.253l-33.85-40.8a1.873,1.873,0,0,1,.239-2.642l28.086-23.3A1.869,1.869,0,0,1,474.6,243.476Z"/>
                <path class="cls-35" d="M474.6,243.476l1.852,2.231L445.485,271.4l-1.852-2.231a1.873,1.873,0,0,1,.239-2.642l28.086-23.3A1.869,1.869,0,0,1,474.6,243.476Z"/>
                <path class="cls-17" d="M465.987,251.334a1.114,1.114,0,1,1-1.568-.146A1.113,1.113,0,0,1,465.987,251.334Z"/>
                <path class="cls-17" d="M469.794,248.174a1.113,1.113,0,1,1-1.567-.145A1.113,1.113,0,0,1,469.794,248.174Z"/>
                <path class="cls-17" d="M473.6,245.015a1.113,1.113,0,1,1-1.568-.146A1.114,1.114,0,0,1,473.6,245.015Z"/>
                <rect class="cls-36" x="450.959" y="264.034" width="19.296" height="14.225" transform="translate(-67.008 356.598) rotate(-39.684)"/>
                <rect class="cls-36" x="464.734" y="269.18" width="35.933" height="31.131" transform="translate(-70.601 373.838) rotate(-39.684)"/>
                <rect class="cls-36" x="463.775" y="253.407" width="14.596" height="1.237" transform="translate(-53.663 359.338) rotate(-39.684)"/>
                <rect class="cls-36" x="465.434" y="255.406" width="14.596" height="1.237" transform="translate(-54.558 360.853) rotate(-39.684)"/>
                <rect class="cls-36" x="467.092" y="257.405" width="14.596" height="1.237" transform="translate(-55.452 362.375) rotate(-39.684)"/>
                <rect class="cls-36" x="468.751" y="259.404" width="14.596" height="1.237" transform="translate(-56.346 363.897) rotate(-39.684)"/>
                <rect class="cls-36" x="470.409" y="261.403" width="14.596" height="1.237" transform="translate(-57.24 365.415) rotate(-39.684)"/>
                <rect class="cls-36" x="472.556" y="264.754" width="10.359" height="1.237" transform="translate(-59.374 366.204) rotate(-39.684)"/>
              </g>
              <g>
                <path class="cls-37" d="M460.779,280.739a10.842,10.842,0,0,0-6.149,3.209.562.562,0,0,0-.227.449c.035.215.287.31.5.345,1.252.2,1.456-.6,2.626-1.087.79-.33,1.575-.673,2.36-1.015"/>
                <path class="cls-32" d="M469.989,280.733l-3.414,2.137a2.431,2.431,0,0,0-1.157,1.158c-.743,2.424-2.257,2.553-3.1,3.107a25.145,25.145,0,0,1-2.78,1.128c.217.3.415.554.593.792a4.426,4.426,0,0,1-.465.207.121.121,0,0,1-.059.01,2.126,2.126,0,0,1-1.87-.6h-.01a9.778,9.778,0,0,1-2.246-3.018,1.852,1.852,0,0,1,.257-1.851l.02-.02a25.117,25.117,0,0,1,3.423-2.5c.584-.277,6.155-1.94,8.253-2.375Z"/>
                <path class="cls-28" d="M480.277,239.7c.789,11.155,4.574,25.064,4.574,25.064L463.7,279.4s.316,1.232.788,2.566a12.05,12.05,0,0,0,1.317,2.384s27.179-9.747,29.136-15.45c-.518-6.95.332-31.415-6.569-40.454-2.2-2.877-15.556-4.57-15.556-4.57"/>
              </g>
              <path class="cls-34" d="M477.884,196.172a1.269,1.269,0,0,1-.4-.528c.062-3.308-1.637-3.906-3.678-4.822-2.948-1.319-14.469-1.551-15.628-5.877-.894.4-1.737.916-1.477,4.135a5.514,5.514,0,0,1-.555-1.258,7,7,0,0,0-1.082,3.634,4.554,4.554,0,0,0,1.5,3.405,5.913,5.913,0,0,0,2.1,1.056,50.832,50.832,0,0,0,5.535,1.135,11.3,11.3,0,0,1,5.138,2.2,3.989,3.989,0,0,1,.977,1.2,19.826,19.826,0,0,0-.967,4.253,2.873,2.873,0,0,0,.768,1.885c-.154,1.734-.254,3.151-.039,3.088.5-.15.687-.757.986-1.2.563-.827,1.223-.29,2.085.211l-.369.8,1.372-.651S482.384,200.856,477.884,196.172Z"/>
              <path class="cls-32" d="M469.846,212.166a1.157,1.157,0,0,0,1.73,1.313,3.99,3.99,0,0,0,2.517-3.089c.3-1.59-.556-3.18-2.011-2.767a2.149,2.149,0,0,0-1.374,2.093"/>
              <path class="cls-37" d="M465.545,218.052a10.331,10.331,0,0,1-4.821.912c.008-.547.025-1.062.025-1.477Z"/>
            </g>
          </g>
          <path class="cls-33" d="M480.471,241.943s.084.356.229.977.327,1.513.558,2.58c.441,2.137.976,4.99,1.494,7.843l1.411,7.846c.212,1.066.347,1.968.5,2.586.13.623.192.985.192.985s-.146-.334-.379-.93-.544-1.456-.867-2.5a70.076,70.076,0,0,1-1.836-7.806c-.514-2.869-.885-5.759-1.077-7.937-.1-1.088-.141-2-.184-2.636S480.471,241.943,480.471,241.943Z"/>
          <path class="cls-38" d="M465.944,297.047s.13.513.359,1.41c.209.9.546,2.182.884,3.73s.763,3.349,1.166,5.288.824,4.009,1.242,6.079c.395,2.074.79,4.148,1.161,6.093.351,1.948.678,3.767.959,5.326.554,3.122.924,5.2.924,5.2s-.689-2.006-1.474-5.083c-.382-1.54-.845-3.334-1.272-5.27s-.859-4-1.279-6.076c-.4-2.076-.792-4.153-1.123-6.106s-.6-3.784-.855-5.35-.394-2.882-.523-3.8C466.005,297.573,465.944,297.047,465.944,297.047Z"/>
        </g>
        <line class="cls-29" x1="425.334" y1="395.702" x2="506.466" y2="395.702"/>
        <line class="cls-29" x1="509.48" y1="395.702" x2="521.085" y2="395.702"/>
      </g>
      <g>
        <g>
          <polygon class="cls-39" points="131.581 395.702 153.838 243.142 142.709 243.142 120.453 395.702 131.581 395.702"/>
          <polygon class="cls-40" points="133.506 395.702 155.762 243.142 144.634 243.142 122.377 395.702 133.506 395.702"/>
          <line class="cls-41" x1="196.282" y1="314.339" x2="138.491" y2="314.339"/>
          <line class="cls-41" x1="200.385" y1="284.914" x2="142.594" y2="284.914"/>
          <line class="cls-41" x1="205.128" y1="255.489" x2="146.86" y2="255.489"/>
          <line class="cls-41" x1="192.227" y1="343.764" x2="134.436" y2="343.764"/>
          <line class="cls-41" x1="187.546" y1="373.189" x2="129.755" y2="373.189"/>
          <g>
            <rect class="cls-42" x="105.173" y="132.336" width="100.967" height="77.686" transform="translate(21.26 -17.152) rotate(6.768)"/>
            <rect class="cls-3" x="107.514" y="134.137" width="96.285" height="74.084" transform="translate(21.26 -17.152) rotate(6.768)"/>
            <polygon class="cls-14" points="175.825 165.858 143.093 197.786 144.689 197.975 143.612 207.052 199.098 213.637 200.175 204.561 175.825 165.858"/>
            <polyline class="cls-43" points="104.561 193.213 148.761 148.355 187.561 212.268 103.484 202.289 104.561 193.213"/>
            <circle class="cls-17" cx="184.507" cy="151.265" r="10.223" transform="translate(-28.094 259.547) rotate(-66.337)"/>
          </g>
          <g>
            <g>
              <path class="cls-32" d="M144.9,333.441s-.411,4.48-.573,5.619-3.811.978-4.195.356-.242-5.889-.242-5.889"/>
              <path class="cls-31" d="M139.1,340.36a24.42,24.42,0,0,0,.121,3.158l4.2.282.254-.687a6.616,6.616,0,0,0,2.384.864l3.544.238c2.594.175,4.089-.057,4.186-.509.4-1.889-2.7-2.011-3.51-2.065-2.317-.156-4.753-1.409-5.221-2.622-.339-.88-.149-1.084-.639-.957a1.205,1.205,0,0,0-.762.573,2.132,2.132,0,0,1-2.269,1.047,2.537,2.537,0,0,1-1.373-.779A1.534,1.534,0,0,0,139.1,340.36Z"/>
            </g>
            <g>
              <path class="cls-32" d="M186.936,302.567a34.5,34.5,0,0,1-.966,4.2c-.424,1.068-3.934.058-4.162-.636s1.143-5.782,1.143-5.782"/>
              <path class="cls-31" d="M180.578,307.009c-.311,1.154-.709,3.369-.709,3.369l3.5,1.553.58-.538a6.508,6.508,0,0,0,1.939,1.567,14.588,14.588,0,0,0,3.4.965c3.066.35,5.327-.213,5.512-.637.773-1.772-3.295-2.274-4.1-2.492a5.4,5.4,0,0,1-3.832-3.888c-.173-.933.059-1.1-.462-1.07a1.242,1.242,0,0,0-.882.407,2.218,2.218,0,0,1-2.5.565,2.655,2.655,0,0,1-1.239-1.045A1.534,1.534,0,0,0,180.578,307.009Z"/>
            </g>
            <path class="cls-28" d="M136.871,215.711a21.248,21.248,0,0,0,4.827,1.107,32.237,32.237,0,0,0,4.281.215,16.325,16.325,0,0,0,6.844-1.455c4.661-2.347,5.24-6.777,5.587-7.19-.612,0-3.786.016-6.943-.116-3.405-.132-6.794-.43-6.909-1.107a17.821,17.821,0,0,0,1.487-3.835c2.381-8.414,1.736-21.837,1.091-27.986-2.694.562-7.075,1.554-8.215,3.554-2.042,3.622-2.98,10.063-3.627,16.886C134.412,205.09,134.487,214.757,136.871,215.711Z"/>
            <path class="cls-31" d="M161.712,228.647l-15.372-.137s-4.653,7.392-4.138,14.854,2.109,7.981,2.133,11.585c.149,14.608.63,24.33.95,29.369a20.576,20.576,0,0,1-1.028,7.876,73.151,73.151,0,0,0-2.83,10.351c-1.176,7.534-2.236,32.536-2.236,32.536s3.852,1.136,5.986.673c0,0,9.609-31.729,12.45-44.327l2.4-9.659c1.256-4.595,8.346-34.922,8.346-34.922Z"/>
            <path class="cls-31" d="M191.289,256.122c2.078-6.1,14.346-4.971,12.46,2.148-2.1,7.92-15.933,45.719-15.933,45.719a16.659,16.659,0,0,1-6.615-1.7s1.845-9.206,4.335-29.862C186.243,266.569,190.405,257.528,191.289,256.122Z"/>
            <path class="cls-31" d="M161.221,223.514c10.644,3.413,28.584,18.1,38.237,24.213,6.492,4.11,5.812,14.431-.551,15-7.6.676-41.352-6.247-52.444-25.833"/>
            <path class="cls-32" d="M150.732,172.617s1.246-4.221.7-7.336-2.414-8.723-1.713-12.928,11.885-10.965,16.422-7.626c7.925,5.833,2.268,24.526,1.334,25.071s-4.451-.174-5.068.5-1.084,4.643-1.084,4.643"/>
            <path class="cls-33" d="M148.708,175.907s.052-2.117.759-2.867c1.88-2,12.093.59,12.591.937s.964,2.4.964,2.4Z"/>
            <path class="cls-44" d="M149.826,165.473c.557,1.434.816,3.388,1.593,3.752a71.784,71.784,0,0,0,7.888.417c3.422-1.6,4.392-9.6,4.392-9.6h.017c-.066-1.058-.245-2.488.2-3.133,1.025-1.471,2.708-.272,2.857,1.133s.127,3.045.491,3.227c.5.264.909-1.846.711-4.54-.165-2.347,1.47-6.109,2.826-8.208,1.554-2.43.812-8.539-4.177-7.951a3.348,3.348,0,0,1-2.628,2.4c-3.389.926-9.521.149-12.5,1.884-1.273.744-2.4,2.414-1.785,3.686,0,0-3.093-.358-2.612,4.48C148.142,163.469,149.014,163.384,149.826,165.473Z"/>
            <path class="cls-28" d="M172.794,229.877c-.729.266-1.372.7-2.127.925a14.606,14.606,0,0,1-5.522.071c-1.9-.169-3.794-.345-5.693-.491-9.9-.422-13.3,1.958-14.9-.45a2.765,2.765,0,0,1-.34-2.029c.2-1.31-.589-13.316-2.238-24.3-1.1-7.3-3.19-14.072-3.366-17.254-.628-11.406,10.961-11.306,10.961-11.306,17.026-1.062,23.369,3.842,24.3,11.156.068.518.109,1.076.15,1.662.436,7.546-1.707,23.147-2.8,32.246C170.913,222.608,174.251,229.346,172.794,229.877Z"/>
            <path class="cls-32" d="M207.54,163.108c.015-.33.021-.579.012-.685-.05-.607-.7-.359-.867.14a7.411,7.411,0,0,0-.151.838,4.218,4.218,0,0,0,.007-.46c-.051-.5-.625-.374-.793.036a6.52,6.52,0,0,0-.178.965c-.08.5-.225,1.036-.3,1.538-.063.457-.627,2.6-1.7,2.816-1.641.329-.565-2.5-1.711-3.16-.359-.2-.774,2-.818,3.246a13.9,13.9,0,0,0,.048,2.611,17.464,17.464,0,0,1,.421,2.227,10.7,10.7,0,0,1-.568,1.628l3.777,1.566a9.591,9.591,0,0,1,1.014-2.779,8.734,8.734,0,0,0,2.416-4.395C208.833,166.516,207.745,162.739,207.54,163.108Z"/>
            <path class="cls-28" d="M205.112,175.4s-1.131,6.552-2.248,11.8a69.071,69.071,0,0,1-4.05,12.349c-.011.028-2.826,6.352-4.129,6.953-6.382,2.941-22.09-10.972-25.149-13.67-6.882,1.838-12-17.831-12-17.831a86.994,86.994,0,0,1,12.988,1.153c5.211,1.107,19.691,17.5,20.393,17.542.441-.842.856-1.695,2.405-4.651,3.477-6.631,7.758-14.867,7.758-14.867s3.16.94,3.214.968Z"/>
          </g>
          <polygon class="cls-45" points="187.41 395.702 209.666 243.142 198.538 243.142 176.282 395.702 187.41 395.702"/>
          <polygon class="cls-44" points="189.334 395.702 211.59 243.142 200.462 243.142 178.206 395.702 189.334 395.702"/>
          <path class="cls-38" d="M153.048,235.188a14.666,14.666,0,0,0-.324,1.543,17.378,17.378,0,0,0-.187,4.1,11.156,11.156,0,0,0,6.5,9.619c2.042,1.025,4.121,1.988,6.07,2.893,1.955.89,3.774,1.741,5.357,2.418l5.273,2.282s-.558-.142-1.522-.437-2.341-.719-3.961-1.318-3.516-1.288-5.5-2.135-4.092-1.79-6.164-2.814a11.31,11.31,0,0,1-6.6-10.484,15.42,15.42,0,0,1,.555-4.169A10.7,10.7,0,0,1,153.048,235.188Z"/>
          <path class="cls-33" d="M167.345,189.045s.185.258.524.689.855,1.02,1.474,1.717,1.387,1.472,2.212,2.293,1.737,1.663,2.679,2.474c.47.406.923.833,1.4,1.212s.919.8,1.384,1.15l1.311,1.061,1.194.931,1.792,1.4c.433.341.674.548.674.548s-.287-.132-.779-.383c-.48-.268-1.21-.589-2.011-1.093-.822-.474-1.752-1.074-2.715-1.767s-1.957-1.48-2.914-2.312a34.6,34.6,0,0,1-2.653-2.616,25.749,25.749,0,0,1-2.025-2.545,18.661,18.661,0,0,1-1.189-1.968A7.38,7.38,0,0,1,167.345,189.045Z"/>
          <path class="cls-33" d="M139.518,191.554s.155.449.389,1.245c.219.8.566,1.935.888,3.319s.711,3,1.042,4.743c.35,1.742.65,3.613.939,5.486.264,1.877.5,3.756.677,5.525s.277,3.423.363,4.841.094,2.605.121,3.433l.009,1.3s-.074-.468-.2-1.288-.286-1.989-.487-3.393-.429-3.038-.678-4.791-.522-3.618-.791-5.485c-.561-3.732-1.122-7.465-1.542-10.264Z"/>
          <path class="cls-33" d="M188.556,191.487a9.988,9.988,0,0,1,1,.716,17.072,17.072,0,0,1,1.966,1.845c.328.366.648.739.925,1.108s.515.727.719,1.034a8.736,8.736,0,0,1,.6,1.074l-.232-.247-.591-.658c-.485-.545-1.138-1.258-1.788-1.974l-1.789-1.978C188.876,191.862,188.556,191.487,188.556,191.487Z"/>
        </g>
        <line class="cls-29" x1="109.439" y1="395.702" x2="200.385" y2="395.702"/>
        <line class="cls-29" x1="81.769" y1="395.702" x2="104.781" y2="395.702"/>
      </g>
      <g>
        <rect class="cls-44" x="302.309" y="286.781" width="70.158" height="108.921" rx="2.734" ry="2.734"/>
        <rect class="cls-9" x="306.811" y="292.315" width="61.154" height="87.536" rx="2.734" ry="2.734"/>
        <line class="cls-29" x1="287.87" y1="395.702" x2="374.205" y2="395.702"/>
        <line class="cls-29" x1="376.455" y1="395.702" x2="382.58" y2="395.702"/>
        <g>
          <path class="cls-17" d="M344.145,298.765V329.9a.952.952,0,0,1-.952.952h-30.8a.949.949,0,0,1-.941-.952V298.765a.946.946,0,0,1,.941-.94h30.8A.949.949,0,0,1,344.145,298.765Z"/>
          <path class="cls-46" d="M344.145,324.066V329.9a.952.952,0,0,1-.952.952H327.916l.65-6.788,7.19-7.952Z"/>
          <path class="cls-3" d="M339.867,330.854H312.393a.949.949,0,0,1-.941-.952v-5.836L322.2,312.783Z"/>
          <circle class="cls-46" cx="336.031" cy="306.76" r="3.791"/>
        </g>
        <path class="cls-17" d="M363.035,335.584V366.72c0,.527-.667.952-1.494.952H313.217c-.808,0-1.476-.425-1.476-.952V335.584c0-.515.668-.941,1.476-.941h48.324C362.368,334.643,363.035,335.069,363.035,335.584Z"/>
        <g>
          <circle class="cls-9" cx="337.388" cy="351.158" r="9.043"/>
          <polygon class="cls-3" points="334.92 356.415 334.92 345.9 342.185 351.158 334.92 356.415"/>
        </g>
        <rect class="cls-19" x="346.431" y="297.825" width="16.604" height="2.457"/>
        <rect class="cls-19" x="311.741" y="370.075" width="51.295" height="2.457"/>
        <rect class="cls-19" x="311.741" y="374.658" width="43.339" height="2.457"/>
        <rect class="cls-19" x="346.431" y="302.192" width="16.604" height="2.457"/>
        <rect class="cls-19" x="346.431" y="306.56" width="16.604" height="2.457"/>
        <rect class="cls-19" x="346.431" y="310.927" width="16.604" height="2.457"/>
        <rect class="cls-19" x="346.431" y="315.295" width="16.604" height="2.457"/>
        <rect class="cls-19" x="346.431" y="319.662" width="16.604" height="2.457"/>
        <rect class="cls-19" x="346.431" y="324.029" width="16.604" height="2.457"/>
        <rect class="cls-19" x="346.431" y="328.397" width="11.336" height="2.457"/>
        <path class="cls-17" d="M342.185,387.836a4.388,4.388,0,1,1-4.387-4.388A4.387,4.387,0,0,1,342.185,387.836Z"/>
      </g>
      <g>
        <g>
          <rect class="cls-9" x="109.999" y="60.944" width="32.756" height="32.755" rx="6.25" ry="6.25"/>
          <path class="cls-17" d="M131.537,78.974l-6.813-6.813a5.122,5.122,0,0,0-6.385-6.322l3.2,3.2-.714,2.732-2.732.714-3.2-3.2a5.123,5.123,0,0,0,6.323,6.386l6.812,6.813a5.123,5.123,0,0,0,6.386,6.322l-3.2-3.2.714-2.731,2.732-.714,3.2,3.2a5.122,5.122,0,0,0-6.322-6.385Z"/>
        </g>
        <g>
          <path class="cls-3" d="M99.687,243.737a1.873,1.873,0,0,0-.129-.5l-.005,0a2.356,2.356,0,0,0-.149-.288,1.557,1.557,0,0,0-.208-.258c-.04-.039-.075-.079-.114-.114a.855.855,0,0,0-.124-.1h0c-.055-.04-.114-.079-.174-.114a1.416,1.416,0,0,0-.426-.179c-.05-.014-.1-.024-.154-.034a1.824,1.824,0,0,0-.595-.01l-.04,0a1.939,1.939,0,0,1-.416.01,1.89,1.89,0,0,1-.923-.338.784.784,0,0,1-.129-.1,1.094,1.094,0,0,1-.134-.129,1.431,1.431,0,0,1-.173-.223c-.045-.074-.09-.154-.129-.233-.02-.045-.04-.089-.055-.134s-.03-.074-.044-.114c-.124-.342-.263-.679-.422-1.012,0,0,0-.014-.01-.019a1.2,1.2,0,0,1-.069-.179,1.726,1.726,0,0,1-.08-.759V238.9a2.137,2.137,0,0,1,.179-.595,1.706,1.706,0,0,1,.377-.511c.054-.049.109-.1.168-.143l.035-.025a1.911,1.911,0,0,0,.154-.129,1.794,1.794,0,0,0,.352-.451,2.311,2.311,0,0,0,.114-.248v-.005a2.333,2.333,0,0,0,.074-.258,1.777,1.777,0,0,0-.347-1.5,16.382,16.382,0,0,0-1.21-1.359,15.518,15.518,0,0,0-1.364-1.215,1.79,1.79,0,0,0-1.542-.342l-.2.06a1.724,1.724,0,0,0-.7.456,1.489,1.489,0,0,0-.144.169l-.035.039a1.818,1.818,0,0,1-.838.625,1.844,1.844,0,0,1-.372.094.17.17,0,0,1-.05,0,.32.32,0,0,1-.1,0,1.578,1.578,0,0,1-.377-.015,1.071,1.071,0,0,1-.277-.069,1.274,1.274,0,0,1-.179-.07c-.079-.034-.154-.074-.233-.1-.109-.054-.223-.1-.337-.148-.194-.08-.382-.154-.581-.224,0,0-.009,0-.019-.01a1.8,1.8,0,0,1-1.141-1.815l0-.024.02-.144v-.015a1.822,1.822,0,0,0-1.384-2.033,1.326,1.326,0,0,0-.2-.04,16.825,16.825,0,0,0-3.645,0,1.823,1.823,0,0,0-1.6,1.974l.015.134a1.6,1.6,0,0,1,.02.267,1.829,1.829,0,0,1-1.032,1.652l-.149.059c-.188.07-.377.144-.56.219-.154.064-.3.128-.446.193l-.11.05a1.809,1.809,0,0,1-2.216-.581l-.01-.01a1.838,1.838,0,0,0-2.455-.456c-.054.035-.109.075-.164.114a16.446,16.446,0,0,0-2.539,2.539,1.8,1.8,0,0,0-.317,1.667,1.615,1.615,0,0,0,.218.481,2.122,2.122,0,0,0,.268.327c.054.05.114.1.173.144l.01.01a1.809,1.809,0,0,1,.581,2.216q-.254.55-.462,1.116a1.784,1.784,0,0,1-.362.6,2.49,2.49,0,0,1-.307.263,2.08,2.08,0,0,1-.362.189,1.713,1.713,0,0,1-.263.084,1.868,1.868,0,0,1-.684.025,1.62,1.62,0,0,0-.268-.02,1.877,1.877,0,0,0-.337.03,1.826,1.826,0,0,0-1.5,1.6,15.586,15.586,0,0,0,0,3.595,1.833,1.833,0,0,0,1.5,1.6,1.882,1.882,0,0,0,.605.01,1.6,1.6,0,0,1,.268-.02,1.872,1.872,0,0,1,1.041.317,1.8,1.8,0,0,1,.213.174,1.745,1.745,0,0,1,.456.689q.208.566.462,1.116a1.807,1.807,0,0,1-.412,2.078c-.055.05-.109.094-.169.139v.005l-.01,0a2.164,2.164,0,0,0-.173.144,2.122,2.122,0,0,0-.268.327,1.6,1.6,0,0,0-.218.481c-.015.054-.025.109-.035.164s-.02.109-.025.163a1.1,1.1,0,0,0-.014.184v.01c0,.019,0,.034,0,.054a1.616,1.616,0,0,0,.09.506.054.054,0,0,1,0,.025.038.038,0,0,0,.01.025c.009.029.019.054.029.084.025.059.055.119.085.178.005.01.015.02.019.03s.015.025.02.035a1.548,1.548,0,0,0,.129.208A15.879,15.879,0,0,0,72.48,258.6a1.79,1.79,0,0,0,1.3.387,1.823,1.823,0,0,0,.461-.1,1.805,1.805,0,0,0,.858-.63l.144-.168a1.889,1.889,0,0,1,.714-.472l.625-.109a1.788,1.788,0,0,1,.744.164,11.729,11.729,0,0,0,1.105.461,1.781,1.781,0,0,1,1.057,1.037,1.856,1.856,0,0,1,.109.947v.01a1.834,1.834,0,0,0,1.418,2.058.018.018,0,0,0,.015,0,.973.973,0,0,0,.174.03,15.484,15.484,0,0,0,1.8.1,16.562,16.562,0,0,0,1.79-.1,1.813,1.813,0,0,0,1.111-.556,1.931,1.931,0,0,0,.293-.4,1.578,1.578,0,0,0,.1-.223,1.845,1.845,0,0,0,.1-.932,1.612,1.612,0,0,1-.02-.268,1.812,1.812,0,0,1,1.18-1.716c.377-.134.744-.287,1.111-.456l0-.005a1.8,1.8,0,0,1,1.562.03,2.085,2.085,0,0,1,.357.233,2.822,2.822,0,0,1,.3.317l0,.01a1.839,1.839,0,0,0,2.45.466,1.193,1.193,0,0,0,.168-.119,15.941,15.941,0,0,0,2.544-2.544,1.817,1.817,0,0,0,.313-1.676c-.025-.079-.055-.159-.089-.238a1.614,1.614,0,0,0-.129-.233,1.685,1.685,0,0,0-.442-.471l-.01,0v-.005c-.059-.045-.114-.089-.168-.139a1.814,1.814,0,0,1-.412-2.078A11.923,11.923,0,0,0,95.6,250.1a1.823,1.823,0,0,1,1.984-1.16,1.871,1.871,0,0,0,1.235-.248,2.12,2.12,0,0,0,.258-.194c.039-.039.079-.074.119-.114s.064-.074.094-.109a1.8,1.8,0,0,0,.4-.942,15.586,15.586,0,0,0,0-3.595Zm-7.816,2.707a.551.551,0,0,0-.01.09c-.02.148-.04.292-.06.436a4.68,4.68,0,0,1-.089.461c0,.01-.005.015-.005.02a8.743,8.743,0,0,1-.238.878c-.054.168-.119.337-.183.506-.06.148-.124.3-.194.441-.049.109-.1.218-.158.322a6.935,6.935,0,0,1-.5.843c-.045.07-.095.144-.144.214a.4.4,0,0,1-.07.094c-.054.079-.114.159-.178.238a3.416,3.416,0,0,1-.233.288,6.221,6.221,0,0,1-.511.555c-.074.079-.154.154-.233.228s-.169.149-.248.218c-.119.1-.238.2-.362.3a10.2,10.2,0,0,1-.932.635c-.1.059-.2.119-.3.173-.119.065-.238.124-.362.184s-.228.109-.347.158c-.188.08-.382.154-.58.224-.109.039-.219.079-.333.109-.243.074-.485.134-.734.188a2.956,2.956,0,0,1-.366.07,3.438,3.438,0,0,1-.372.054,9.472,9.472,0,0,1-1.875.04,3.131,3.131,0,0,1-.372-.04,3.4,3.4,0,0,1-.372-.054c-.124-.02-.248-.04-.372-.07a9.434,9.434,0,0,1-1.254-.367c-.11-.04-.219-.079-.323-.129a.179.179,0,0,1-.039-.015c-.12-.049-.239-.1-.353-.158a.292.292,0,0,1-.039-.02,3.638,3.638,0,0,1-.367-.189,7.362,7.362,0,0,1-.734-.446.026.026,0,0,1-.02-.01c-.114-.074-.223-.154-.332-.238s-.2-.149-.293-.228c-.139-.114-.268-.228-.4-.347s-.253-.238-.372-.362c-.1-.1-.2-.213-.3-.323a8.663,8.663,0,0,1-.928-1.259c-.074-.124-.148-.243-.213-.372a4.364,4.364,0,0,1-.218-.432c-.04-.084-.079-.163-.114-.248a1.6,1.6,0,0,1-.07-.163c-.029-.07-.059-.144-.089-.218-.034-.095-.069-.189-.1-.288a.764.764,0,0,1-.04-.114c-.039-.119-.079-.238-.109-.362-.054-.179-.1-.362-.139-.546-.024-.109-.044-.223-.064-.332-.035-.208-.064-.416-.089-.63-.03-.3-.045-.61-.045-.912v-.015c0-.3.015-.6.045-.9,0-.03,0-.059.01-.089.015-.144.034-.293.059-.436s.05-.308.089-.462a.027.027,0,0,1,0-.019,8.942,8.942,0,0,1,.238-.878c.04-.119.085-.243.129-.362.035-.09.07-.184.109-.273.025-.06.05-.124.08-.184.034-.079.069-.158.109-.238a7.086,7.086,0,0,1,.357-.664l.188-.308a.117.117,0,0,1,.02-.029c.07-.1.134-.2.2-.293.09-.129.184-.253.283-.377s.2-.243.3-.357.208-.233.317-.347a9.348,9.348,0,0,1,1.845-1.448c.109-.06.218-.124.327-.184s.223-.114.337-.168.214-.1.323-.149a5.968,5.968,0,0,1,.63-.243,3.046,3.046,0,0,1,.3-.1c.124-.035.243-.07.367-.1a3.24,3.24,0,0,1,.367-.085,3.381,3.381,0,0,1,.367-.069,3.179,3.179,0,0,1,.372-.055c.124-.014.248-.029.377-.039a9.365,9.365,0,0,1,1.5,0,3.352,3.352,0,0,1,.372.039,3.211,3.211,0,0,1,.372.055,3.451,3.451,0,0,1,.371.069,7.668,7.668,0,0,1,.913.248c.084.025.164.05.248.08a8.348,8.348,0,0,1,1.22.55c.129.07.253.139.372.213s.238.144.352.224.228.158.337.243c.015.009.035.024.05.034.109.085.218.169.327.258s.208.174.307.268a7.389,7.389,0,0,1,.63.635,3.437,3.437,0,0,1,.233.268,5.218,5.218,0,0,1,.362.471c.06.079.114.158.169.238a6.794,6.794,0,0,1,.511.863c.064.114.124.233.178.352.01.025.02.044.03.064.06.124.114.253.164.382.01.02.015.04.025.06.044.109.084.218.119.332.024.059.044.129.064.193a9.025,9.025,0,0,1,.238.873c.015.089.035.174.05.263.039.228.074.456.1.684.03.3.045.605.045.913S91.9,246.142,91.871,246.444Z"/>
          <rect class="cls-47" x="59.641" y="222.171" width="46.731" height="46.731" rx="6.25" ry="6.25"/>
        </g>
        <g>
          <rect class="cls-47" x="532.777" y="235.744" width="46.731" height="46.731" rx="6.25" ry="6.25"/>
          <path class="cls-48" d="M571.714,272.736H540.572a2.1,2.1,0,0,1-1.74-3.274L554.4,246.408a2.1,2.1,0,0,1,3.479,0l15.571,23.054A2.1,2.1,0,0,1,571.714,272.736Z"/>
          <g>
            <path class="cls-3" d="M556.532,265.969h-.779a.994.994,0,0,1-.993-.954l-.543-13.2a.994.994,0,0,1,.993-1.036h1.865a1,1,0,0,1,.994,1.036l-.543,13.2A1,1,0,0,1,556.532,265.969Z"/>
            <circle class="cls-3" cx="556.127" cy="268.625" r="1.328"/>
          </g>
        </g>
        <g>
          <rect class="cls-9" x="262.557" y="27.691" width="32.755" height="32.755" rx="6.25" ry="6.25"/>
          <g>
            <path class="cls-3" d="M282,51.191a3.061,3.061,0,1,1-3.061-3.061A3.061,3.061,0,0,1,282,51.191Z"/>
            <g>
              <path class="cls-3" d="M278.935,40.76a10.39,10.39,0,0,0-7.485,3.186l2.087,2.024a7.469,7.469,0,0,1,10.8,0l2.087-2.024A10.361,10.361,0,0,0,278.935,40.76Z"/>
              <path class="cls-3" d="M278.935,33.887a17.26,17.26,0,0,0-12.428,5.272l2.087,2.025a14.365,14.365,0,0,1,20.682,0l2.087-2.025A17.234,17.234,0,0,0,278.935,33.887Z"/>
            </g>
          </g>
        </g>
      </g>
    </g>
  </g>
</svg>
