<svg xmlns="http://www.w3.org/2000/svg" xmlns:xlink="http://www.w3.org/1999/xlink" viewBox="0 0 112.567 108.843">
  <defs>
    <style>
      .cls-1 {
        isolation: isolate;
      }

      .cls-2 {
        fill: url(#linear-gradient);
      }

      .cls-3 {
        fill: #4eb0f9;
        mix-blend-mode: multiply;
      }

      .cls-4, .cls-5, .cls-7 {
        fill: #fff;
        mix-blend-mode: overlay;
      }

      .cls-4 {
        opacity: 0.5;
      }

      .cls-5 {
        opacity: 0.33;
      }

      .cls-6 {
        fill: url(#linear-gradient-2);
      }

      .cls-7 {
        opacity: 0.7;
      }
    </style>
    <linearGradient id="linear-gradient" y1="54.421" x2="112.567" y2="54.421" gradientUnits="userSpaceOnUse">
      <stop offset="0" stop-color="#4eb0f9"/>
      <stop offset="1" stop-color="#2555ef"/>
    </linearGradient>
    <linearGradient id="linear-gradient-2" x1="48.339" y1="62.468" x2="4.118" y2="18.247" gradientUnits="userSpaceOnUse">
      <stop offset="0" stop-color="#ffd101"/>
      <stop offset="1" stop-color="#fc27a5"/>
    </linearGradient>
  </defs>
  <title>dan-site-logo</title>
  <g class="cls-1">
    <g id="Шар_2" data-name="Шар 2">
      <g id="OBJECTS">
        <g>
          <path class="cls-2" d="M57.544,0H0V27.735H19.935v-7.8H58.147A34.525,34.525,0,0,1,92.625,54.952c-.284,18.924-16.073,33.955-35,33.955H19.935V75.266A19.936,19.936,0,0,0,0,55.331v53.512H58.147a54.482,54.482,0,0,0,54.419-54.738C112.391,24.077,87.577,0,57.544,0Z"/>
          <path class="cls-3" d="M26.21,19.935H19.935v3.918H0V0H15.819C17.135,5.213,20.115,13.92,26.21,19.935Z"/>
          <path class="cls-4" d="M57.544,0H0V1.381H57.544c29.873,0,54.583,23.822,55.012,53.631.01-.3.01-.6.01-.907C112.391,24.077,87.577,0,57.544,0ZM92.62,55.067c-.344,18.869-16.108,33.84-35,33.84H19.935v1.381H57.624c18.928,0,34.717-15.032,35-33.955C92.63,55.909,92.63,55.485,92.62,55.067Z"/>
          <path class="cls-5" d="M57.544,0H37.583C66.829,0,91.135,22.841,92.531,51.772a.249.249,0,0,1,0,.105c.074,1.017.1,2.039.089,3.075-.01.643-.035,1.281-.084,1.919a54.475,54.475,0,0,1-54.355,51.972H58.147a54.482,54.482,0,0,0,54.419-54.738C112.391,24.077,87.577,0,57.544,0Z"/>
          <polygon class="cls-6" points="52.405 66.535 37.13 65.373 24.944 64.441 30.581 58.81 0 28.229 0 0.04 19.935 19.975 44.675 44.71 50.312 39.074 51.025 48.468 51.239 51.289 52.296 65.124 52.4 66.49 52.405 66.535"/>
          <polygon class="cls-5" points="52.405 66.535 0 14.972 0 0.04 19.935 19.975 44.675 44.71 50.312 39.074 51.025 48.468 51.239 51.289 52.296 65.124 52.4 66.49 52.405 66.535"/>
          <polygon class="cls-4" points="19.935 19.975 44.675 44.71 44.097 45.288 19.357 20.553 0 1.196 0 0.04 19.935 19.975"/>
          <polygon class="cls-7" points="52.405 66.535 51.733 65.872 51.718 65.702 50.661 51.867 50.447 49.046 49.734 39.652 50.312 39.074 51.025 48.468 51.239 51.289 52.296 65.124 52.4 66.49 52.405 66.535"/>
        </g>
      </g>
    </g>
  </g>
</svg>
